<?xml version="1.0" encoding="UTF-8" standalone="no"?>
<svg
   xmlns:dc="http://purl.org/dc/elements/1.1/"
   xmlns:cc="http://creativecommons.org/ns#"
   xmlns:rdf="http://www.w3.org/1999/02/22-rdf-syntax-ns#"
   xmlns:svg="http://www.w3.org/2000/svg"
   xmlns="http://www.w3.org/2000/svg"
   xmlns:sodipodi="http://sodipodi.sourceforge.net/DTD/sodipodi-0.dtd"
   xmlns:inkscape="http://www.inkscape.org/namespaces/inkscape"
   width="256"
   height="256"
   preserveAspectRatio="xMidYMid"
   id="svg2"
   version="1.1"
   inkscape:version="0.91 r13725"
   sodipodi:docname="atom-white.svg">
  <metadata
     id="metadata21">
    <rdf:RDF>
      <cc:Work
         rdf:about="">
        <dc:format>image/svg+xml</dc:format>
        <dc:type
           rdf:resource="http://purl.org/dc/dcmitype/StillImage" />
        <dc:title></dc:title>
      </cc:Work>
    </rdf:RDF>
  </metadata>
  <defs
     id="defs19" />
  <sodipodi:namedview
     pagecolor="#ffffff"
     bordercolor="#666666"
     borderopacity="1"
     objecttolerance="10"
     gridtolerance="10"
     guidetolerance="10"
     inkscape:pageopacity="0"
     inkscape:pageshadow="2"
     inkscape:window-width="1366"
     inkscape:window-height="745"
     id="namedview17"
     showgrid="false"
     inkscape:zoom="1.84375"
     inkscape:cx="163.87984"
     inkscape:cy="124.78544"
     inkscape:window-x="-8"
     inkscape:window-y="-8"
     inkscape:window-maximized="1"
     inkscape:current-layer="svg2" />
  <g
     id="g4">
    <title
       id="title6">background</title>
    <rect
       fill="none"
       id="canvas_background"
       height="402"
       width="582"
       y="-1"
       x="-1" />
  </g>
  <circle
     style="fill:none"
     cx="128"
     cy="128"
     r="127.85778"
     id="svg_2" />
  <path
     style="opacity:1;fill:#ffffff;fill-opacity:1"
     d="M 127.85742 11.236328 A 116.90667 116.90667 0 0 0 10.951172 128.14258 A 116.90667 116.90667 0 0 0 127.85742 245.04883 A 116.90667 116.90667 0 0 0 244.76367 128.14258 A 116.90667 116.90667 0 0 0 127.85742 11.236328 z M 97.705078 52.673828 C 104.24068 52.658629 111.74643 56.135253 120.04297 63.025391 C 121.85572 64.530671 122.10488 67.220436 120.59961 69.033203 C 119.09376 70.846252 116.404 71.095124 114.5918 69.589844 C 107.70171 63.867672 101.46711 60.899902 97.048828 61.232422 C 96.057259 61.306652 95.188987 61.540261 94.394531 61.945312 C 89.449745 64.467195 87.46492 73.939346 89.083984 87.283203 C 89.45433 90.335297 89.999611 93.517685 90.707031 96.802734 C 97.152542 95.840172 104.04418 95.223169 111.19141 94.976562 C 129.24396 71.76561 149.02834 56.710297 163.14844 56.173828 C 166.88405 56.031898 170.19215 56.877579 172.97656 58.6875 C 178.31132 62.155159 183.8416 70.515373 179.88867 90.652344 C 179.43441 92.964874 177.19144 94.469849 174.87891 94.017578 C 172.56666 93.563614 171.06194 91.32007 171.51562 89.007812 C 173.81507 77.294106 172.62242 68.633911 168.32617 65.841797 C 167.04759 65.01094 165.41655 64.626932 163.47266 64.701172 C 154.29306 65.049904 138.52981 75.415733 122.20898 94.896484 C 124.64296 94.945694 127.16037 95.036751 129.73828 95.171875 C 151.11514 96.293152 171.10755 100.41109 186.0332 106.76758 C 193.55163 109.96956 199.45772 113.60568 203.58984 117.57227 C 208.41487 122.20416 210.72473 127.16316 210.45508 132.31445 C 210.14645 138.20871 206.23071 146.61222 189.32617 153.17578 C 188.81902 153.3729 188.29633 153.4668 187.7832 153.4668 C 186.07368 153.4668 184.46062 152.43151 183.80469 150.74219 C 182.95194 148.54572 184.04152 146.07376 186.23828 145.2207 C 195.96657 141.44356 201.68698 136.57753 201.93359 131.86914 C 202.22372 126.3236 195.03007 119.87483 182.68945 114.61914 C 168.65922 108.6444 149.69536 104.76371 129.29102 103.69336 C 125.19473 103.47855 121.26774 103.37697 117.60352 103.38867 C 116.89326 103.39087 116.18886 103.3982 115.48828 103.4082 C 112.84722 106.95296 110.21315 110.73238 107.61133 114.74219 C 105.05958 118.67492 102.67296 122.6315 100.4668 126.57617 C 102.2443 130.71913 104.19977 134.89487 106.32031 139.06055 C 115.59604 157.28064 126.85497 173.04314 138.02539 183.44727 C 147.84866 192.59671 156.66382 196.55506 161.60547 194.03516 C 166.31132 191.63531 168.36046 182.77232 167.08984 170.32617 C 165.64516 156.17421 160.21983 138.75043 151.8125 121.26562 C 150.79135 119.14195 151.68495 116.59341 153.80859 115.57227 C 155.93226 114.55167 158.48108 115.44442 159.50195 117.56836 C 168.32655 135.92101 174.03725 154.34902 175.58008 169.45898 C 176.36458 177.14382 176.0481 183.71016 174.63867 188.97266 C 172.99261 195.1178 169.91069 199.37933 165.48047 201.63867 C 163.27232 202.76478 160.86205 203.32588 158.26562 203.32617 C 155.46044 203.32617 152.43833 202.66933 149.2207 201.35547 C 143.91696 199.18915 138.19283 195.26648 132.20898 189.69336 C 120.3266 178.6259 108.43175 162.01899 98.714844 142.93164 C 97.573937 140.6905 96.479813 138.44514 95.431641 136.20117 C 90.603768 146.11433 87.043915 155.73261 85.048828 164.41016 C 82.039963 177.49689 83.022018 187.11502 87.673828 190.13867 C 92.035782 192.97343 100.56344 190.43832 110.48828 183.35938 C 112.40685 181.9912 115.07156 182.43718 116.43945 184.35547 C 117.80792 186.27405 117.36165 188.93846 115.44336 190.30664 C 105.37488 197.48801 97.758346 199.84541 92.099609 199.8457 C 88.197029 199.8457 85.227874 198.72573 83.023438 197.29297 C 78.700158 194.48267 76.047142 189.69514 75.140625 183.06445 C 74.364372 177.38722 74.899758 170.46819 76.732422 162.49805 C 79.296699 151.34414 84.241783 138.80496 91.019531 126.08203 C 88.329246 119.43828 86.086609 112.8868 84.339844 106.57812 C 65.482308 110.51709 54.410332 117.50652 54.064453 124.11133 C 53.818974 128.79897 58.982891 134.22291 68.230469 138.99219 C 70.32483 140.07194 71.146446 142.64392 70.066406 144.73828 C 68.986374 146.83236 66.412727 147.6565 64.318359 146.57617 C 48.242699 138.28604 45.235199 129.54179 45.542969 123.66602 C 45.86496 117.51492 50.094215 108.79225 68.410156 102.17578 C 72.596619 100.66339 77.267128 99.370713 82.306641 98.308594 C 81.571923 94.866242 81.001015 91.523071 80.611328 88.310547 C 79.625442 80.187378 79.819321 73.243248 81.1875 67.673828 C 82.784935 61.170005 85.924362 56.686153 90.517578 54.34375 C 92.314971 53.427272 94.297584 52.881088 96.410156 52.722656 C 96.837179 52.690567 97.269371 52.674841 97.705078 52.673828 z M 104.6543 103.85352 C 100.47526 104.14536 96.511459 104.5671 92.78125 105.10156 C 93.830574 108.81242 95.061684 112.61605 96.464844 116.47852 C 97.747688 114.34604 99.077547 112.2179 100.45312 110.09766 C 101.83383 107.97001 103.23521 105.88787 104.6543 103.85352 z M 128.51758 119.80273 C 133.66658 119.80273 137.83984 123.97952 137.83984 129.13281 C 137.83984 134.28608 133.66658 138.46289 128.51758 138.46289 C 123.36883 138.46289 119.19336 134.28608 119.19336 129.13281 C 119.19336 123.97952 123.36883 119.80273 128.51758 119.80273 z "
     id="svg_3" />
</svg>
