<svg width="256" height="256" xmlns="http://www.w3.org/2000/svg" preserveAspectRatio="xMidYMid">

 <g>
  <title>background</title>
  <rect fill="none" id="canvas_background" height="402" width="582" y="-1" x="-1"/>
 </g>
 <g>
  <title>Layer 1</title>
  <circle id="svg_2" r="127.857778" cy="128" cx="128" fill="none"/>
  <circle opacity="0.5" id="svg_3" r="116.906667" cy="128.142222" cx="127.857778" fill="#ffffff"/>
  <path id="svg_5" fill="#ffffff" d="m100.452957,110.096741c-1.37558,2.120239 -2.704781,4.249603 -3.987625,6.38208c-1.40316,-3.862473 -2.635086,-7.666351 -3.68441,-11.377213c3.730209,-0.534462 7.695084,-0.956299 11.87413,-1.248138c-1.41909,2.034348 -2.821396,4.115623 -4.202095,6.243271l0,0l0,0zm103.137848,7.474915c-4.132126,-3.966583 -10.039474,-7.601212 -17.557907,-10.8032c-14.925644,-6.356483 -34.918106,-10.474663 -56.294968,-11.59594c-2.577911,-0.135124 -5.094681,-0.227562 -7.528664,-0.276772c16.320839,-19.480751 32.083046,-29.845901 41.262642,-30.194633c1.943893,-0.074242 3.575745,0.310333 4.854324,1.14119c4.296249,2.792114 5.488068,11.452301 3.188629,23.166008c-0.45369,2.312256 1.052444,4.554817 3.364685,5.008781c2.312531,0.452271 4.55452,-1.052437 5.008789,-3.364967c3.952927,-20.136971 -1.576675,-28.49707 -6.911438,-31.964729c-2.784409,-1.809921 -6.093369,-2.655289 -9.828979,-2.513359c-14.120102,0.536469 -33.904633,15.5924 -51.957184,38.803352c-7.147232,0.246605 -14.037613,0.863564 -20.483124,1.826126c-0.70742,-3.285049 -1.25412,-6.469116 -1.624466,-9.52121c-1.619064,-13.343857 0.366646,-22.815857 5.311432,-25.337738c0.794456,-0.405052 1.662575,-0.638302 2.654144,-0.712532c4.418282,-0.33252 10.652451,2.636509 17.542542,8.358681c1.812195,1.50528 4.50248,1.256393 6.008331,-0.556656c1.505272,-1.812767 1.256096,-4.502754 -0.556656,-6.008034c-8.84964,-7.34948 -16.80043,-10.81686 -23.63279,-10.303432c-2.112572,0.158432 -4.094872,0.703712 -5.892265,1.62019c-4.593216,2.342403 -7.732056,6.827812 -9.329491,13.331635c-1.368179,5.56942 -1.562172,12.512413 -0.576286,20.635582c0.389687,3.212524 0.959717,6.555878 1.694435,9.99823c-5.039513,1.062119 -9.710075,2.356049 -13.896538,3.868439c-18.315941,6.61647 -22.544491,15.33754 -22.866482,21.48864c-0.30777,5.875771 2.69994,14.620445 18.7756,22.910576c2.094368,1.080322 4.66774,0.257431 5.747772,-1.836655c1.08004,-2.09436 0.257706,-4.667725 -1.836655,-5.747482c-9.247578,-4.769272 -14.410526,-10.192505 -14.165047,-14.880142c0.345879,-6.604813 11.416458,-13.595314 30.273994,-17.534286c1.746765,6.308685 3.990463,12.86087 6.680748,19.504623c-6.777748,12.722931 -11.723099,25.262085 -14.287376,36.416c-1.832664,7.970139 -2.368279,14.889816 -1.592026,20.567047c0.906517,6.630692 3.558678,11.417603 7.881958,14.227905c2.204437,1.432755 5.175461,2.553467 9.078041,2.553467c5.658737,-0.00029 13.275017,-2.357483 23.343498,-9.538849c1.918289,-1.368179 2.364594,-4.032562 0.996124,-5.951141c-1.367889,-1.918289 -4.03257,-2.364304 -5.951141,-0.996124c-9.924843,7.078964 -18.454193,9.612793 -22.816147,6.77803c-4.65181,-3.023651 -5.632858,-12.641846 -2.623993,-25.728577c1.995087,-8.677551 5.555199,-18.296036 10.383072,-28.209198c1.048172,2.243973 2.142151,4.48938 3.283058,6.730515c9.716911,19.087357 21.612091,35.694077 33.494469,46.761536c5.983856,5.57312 11.707169,9.497314 17.01091,11.663635c3.217636,1.313858 6.239288,1.970917 9.044479,1.970917c2.59642,-0.00029 5.008224,-0.563202 7.21637,-1.689316c4.430222,-2.259338 7.511047,-6.520889 9.157104,-12.666031c1.409424,-5.262497 1.726013,-11.827194 0.941513,-19.512039c-1.542831,-15.109955 -7.252472,-33.538544 -16.077072,-51.891197c-1.020874,-2.12394 -3.570633,-3.017097 -5.694305,-1.996506c-2.123642,1.021149 -3.01738,3.570625 -1.996231,5.69429c8.407333,17.484795 13.833679,34.908165 15.278366,49.060127c1.270615,12.446152 -0.780228,21.309433 -5.486084,23.70929c-4.94165,2.519897 -13.755737,-1.438141 -23.57901,-10.587585c-11.170418,-10.404129 -22.430435,-26.16832 -31.706169,-44.388412c-2.120544,-4.16568 -4.074104,-8.33989 -5.851601,-12.482841c2.206161,-3.944679 4.591789,-7.902718 7.143539,-11.835449c2.601822,-4.009804 5.235786,-7.788658 7.876839,-11.333412c0.700584,-0.009666 1.404869,-0.016777 2.115135,-0.019043c3.664215,-0.011673 7.59153,0.090446 11.68782,0.305206c20.404343,1.070358 39.36824,4.95047 53.398468,10.925217c12.340622,5.255684 19.53479,11.704041 19.244659,17.249573c-0.246613,4.708389 -5.967651,9.575241 -15.695938,13.352386c-2.196762,0.853058 -3.286179,3.325165 -2.433426,5.521637c0.65593,1.689316 2.269302,2.723557 3.978821,2.723557c0.513138,0 1.03566,-0.093292 1.542816,-0.290421c16.904541,-6.563553 20.82077,-14.966888 21.129395,-20.861145c0.269653,-5.151291 -2.040039,-10.111443 -6.865067,-14.743332l0,0l0,0z"/>
  <path id="svg_6" fill="#ffffff" d="m119.194092,129.132706c0,5.153275 4.173927,9.330917 9.322678,9.330917c5.149002,0 9.322937,-4.177643 9.322937,-9.330917c0,-5.153282 -4.173935,-9.33091 -9.322937,-9.33091c-5.14875,0 -9.322678,4.177628 -9.322678,9.33091"/>
 </g>
</svg>