<svg width="256" height="256" xmlns="http://www.w3.org/2000/svg" preserveAspectRatio="xMidYMid">

 <g>
  <title>background</title>
  <rect fill="none" id="canvas_background" height="402" width="582" y="-1" x="-1"/>
 </g>
 <g>
  <title>Layer 1</title>
  <path fill-opacity="0.5" id="svg_2" fill="#ffffff" d="m0,222.991226c0,18.232254 14.778532,33.008774 33.008774,33.008774l189.982452,0c18.232254,0 33.008774,-14.778534 33.008774,-33.008774l0,-189.982452c0,-18.232247 -14.778534,-33.008774 -33.008774,-33.008774l-189.982452,0c-18.232247,0 -33.008774,14.778532 -33.008774,33.008774l0,189.982452z"/>
  <path id="svg_3" fill="#FFFFFF" d="m106.157562,112.682571l0,-36.253502l31.911758,0c3.039246,0 5.969879,0.253265 8.792023,0.759804c2.822144,0.506538 5.318619,1.411057 7.489502,2.713585c2.170868,1.302528 3.907547,3.111565 5.210083,5.42717c1.302521,2.315605 1.953781,5.282425 1.953781,8.900558c0,6.512642 -1.953766,11.216141 -5.861343,14.110649c-3.907593,2.894501 -8.900528,4.341736 -14.978989,4.341736l-34.516815,0l0,0zm-34.082634,-62.738098l0,155l75.112053,0c6.946808,0 13.712616,-0.868332 20.297607,-2.605042c6.585007,-1.73671 12.446289,-4.414078 17.584045,-8.032211c5.137741,-3.618134 9.226166,-8.285461 12.265396,-14.002106c3.03923,-5.716644 4.558823,-12.482452 4.558823,-20.297623c0,-9.696594 -2.351746,-17.981979 -7.055313,-24.85643c-4.703583,-6.874451 -11.831192,-11.686501 -21.383057,-14.436279c6.946808,-3.328682 12.193024,-7.598015 15.7388,-12.808121c3.545761,-5.210114 5.318619,-11.722656 5.318619,-19.537819c0,-7.236267 -1.19397,-13.314636 -3.581924,-18.235291c-2.38797,-4.920662 -5.752777,-8.864368 -10.094543,-11.831238c-4.341751,-2.966866 -9.551788,-5.101532 -15.630249,-6.40406c-6.078461,-1.302528 -12.80809,-1.953781 -20.189072,-1.953781l-72.941185,0l0,0zm34.082634,128.515411l0,-42.549026l37.121857,0c7.380981,0 13.314636,1.7005 17.801117,5.101547c4.486481,3.401031 6.729691,9.081421 6.729691,17.041306c0,4.052307 -0.687439,7.380951 -2.062332,9.986008c-1.374878,2.605042 -3.220108,4.667358 -5.535706,6.186966c-2.315613,1.519623 -4.992981,2.605042 -8.032211,3.256302c-3.03923,0.65126 -6.223145,0.976898 -9.551819,0.976898l-36.470596,0l0,0z"/>
 </g>
</svg>