<?xml version="1.0" encoding="UTF-8" standalone="no"?>
<svg
   xmlns:dc="http://purl.org/dc/elements/1.1/"
   xmlns:cc="http://creativecommons.org/ns#"
   xmlns:rdf="http://www.w3.org/1999/02/22-rdf-syntax-ns#"
   xmlns:svg="http://www.w3.org/2000/svg"
   xmlns="http://www.w3.org/2000/svg"
   xmlns:sodipodi="http://sodipodi.sourceforge.net/DTD/sodipodi-0.dtd"
   xmlns:inkscape="http://www.inkscape.org/namespaces/inkscape"
   width="256"
   height="256"
   preserveAspectRatio="xMidYMid"
   id="svg2"
   version="1.1"
   inkscape:version="0.91 r13725"
   sodipodi:docname="bootstrap-white.svg">
  <metadata
     id="metadata19">
    <rdf:RDF>
      <cc:Work
         rdf:about="">
        <dc:format>image/svg+xml</dc:format>
        <dc:type
           rdf:resource="http://purl.org/dc/dcmitype/StillImage" />
        <dc:title></dc:title>
      </cc:Work>
    </rdf:RDF>
  </metadata>
  <defs
     id="defs17" />
  <sodipodi:namedview
     pagecolor="#ffffff"
     bordercolor="#666666"
     borderopacity="1"
     objecttolerance="10"
     gridtolerance="10"
     guidetolerance="10"
     inkscape:pageopacity="0"
     inkscape:pageshadow="2"
     inkscape:window-width="1366"
     inkscape:window-height="745"
     id="namedview15"
     showgrid="false"
     inkscape:zoom="1.84375"
     inkscape:cx="79.40836"
     inkscape:cy="126.9043"
     inkscape:window-x="-8"
     inkscape:window-y="-8"
     inkscape:window-maximized="1"
     inkscape:current-layer="svg2" />
  <g
     id="g4">
    <title
       id="title6">background</title>
    <rect
       fill="none"
       id="canvas_background"
       height="402"
       width="582"
       y="-1"
       x="-1" />
  </g>
  <path
     style="fill:#ffffff;fill-opacity:1"
     d="M 33.007812 0 C 14.775565 0 0 14.77757 0 33.007812 L 0 222.99219 C 0 241.22444 14.77757 256 33.007812 256 L 222.99219 256 C 241.22444 256 256 241.22243 256 222.99219 L 256 33.007812 C 256 14.775565 241.22243 0 222.99219 0 L 33.007812 0 z M 72.074219 49.945312 L 145.01562 49.945312 C 152.39661 49.945313 159.12661 50.595909 165.20508 51.898438 C 171.28354 53.200965 176.49419 55.335868 180.83594 58.302734 C 185.17771 61.269604 188.54172 65.21215 190.92969 70.132812 C 193.31764 75.053468 194.51172 81.132874 194.51172 88.369141 C 194.51172 96.184304 192.73912 102.69614 189.19336 107.90625 C 185.64759 113.11636 180.40189 117.38616 173.45508 120.71484 C 183.00695 123.46462 190.13431 128.27594 194.83789 135.15039 C 199.54146 142.02484 201.89258 150.31122 201.89258 160.00781 C 201.89258 167.82298 200.37321 174.58805 197.33398 180.30469 C 194.29475 186.02134 190.2061 190.68851 185.06836 194.30664 C 179.93061 197.92477 174.06938 200.60313 167.48438 202.33984 C 160.89939 204.07655 154.13431 204.94531 147.1875 204.94531 L 72.074219 204.94531 L 72.074219 49.945312 z M 106.1582 76.429688 L 106.1582 112.68164 L 140.67383 112.68164 C 146.75229 112.68164 151.7467 111.2363 155.6543 108.3418 C 159.56187 105.44729 161.51562 100.74311 161.51562 94.230469 C 161.51563 90.612336 160.86307 87.645683 159.56055 85.330078 C 158.25801 83.014473 156.52243 81.204872 154.35156 79.902344 C 152.18068 78.599816 149.68348 77.695991 146.86133 77.189453 C 144.03919 76.682914 141.10761 76.429688 138.06836 76.429688 L 106.1582 76.429688 z M 106.1582 135.91016 L 106.1582 178.45898 L 142.62891 178.45898 C 145.95758 178.45898 149.14046 178.13368 152.17969 177.48242 C 155.21892 176.83116 157.89728 175.74619 160.21289 174.22656 C 162.52849 172.70696 164.37318 170.6441 165.74805 168.03906 C 167.12295 165.434 167.81055 162.10504 167.81055 158.05273 C 167.81055 150.09285 165.56656 144.41276 161.08008 141.01172 C 156.59359 137.61068 150.66028 135.91016 143.2793 135.91016 L 106.1582 135.91016 z "
     id="svg_2" />
</svg>
