<?xml version="1.0" encoding="UTF-8" standalone="no"?>
<svg
   xmlns:dc="http://purl.org/dc/elements/1.1/"
   xmlns:cc="http://creativecommons.org/ns#"
   xmlns:rdf="http://www.w3.org/1999/02/22-rdf-syntax-ns#"
   xmlns:svg="http://www.w3.org/2000/svg"
   xmlns="http://www.w3.org/2000/svg"
   xmlns:sodipodi="http://sodipodi.sourceforge.net/DTD/sodipodi-0.dtd"
   xmlns:inkscape="http://www.inkscape.org/namespaces/inkscape"
   width="256"
   height="361"
   preserveAspectRatio="xMidYMid"
   id="svg2"
   version="1.1"
   inkscape:version="0.91 r13725"
   sodipodi:docname="css-3-white.svg">
  <metadata
     id="metadata26">
    <rdf:RDF>
      <cc:Work
         rdf:about="">
        <dc:format>image/svg+xml</dc:format>
        <dc:type
           rdf:resource="http://purl.org/dc/dcmitype/StillImage" />
        <dc:title></dc:title>
      </cc:Work>
    </rdf:RDF>
  </metadata>
  <defs
     id="defs24" />
  <sodipodi:namedview
     pagecolor="#ffffff"
     bordercolor="#666666"
     borderopacity="1"
     objecttolerance="10"
     gridtolerance="10"
     guidetolerance="10"
     inkscape:pageopacity="0"
     inkscape:pageshadow="2"
     inkscape:window-width="1366"
     inkscape:window-height="745"
     id="namedview22"
     showgrid="false"
     inkscape:zoom="1.3074792"
     inkscape:cx="127.54621"
     inkscape:cy="186.55816"
     inkscape:window-x="-8"
     inkscape:window-y="-8"
     inkscape:window-maximized="1"
     inkscape:current-layer="svg2" />
  <g
     id="g4">
    <title
       id="title6">background</title>
    <rect
       fill="none"
       id="canvas_background"
       height="402"
       width="582"
       y="-1"
       x="-1" />
  </g>
  <path
     style="fill:#ffffff;fill-opacity:1"
     d="M 0.4453125 70.765625 L 23.662109 331.16602 L 127.84375 360.08789 L 232.31445 331.125 L 255.55469 70.765625 L 0.4453125 70.765625 z M 47.917969 123.99414 L 127.88867 123.99414 L 128 123.99414 L 207.89258 123.99414 L 202.12695 188.63672 L 201.34766 197.21289 L 193.8418 281.29102 L 193.36133 286.6875 L 128 304.80273 L 128 304.80859 L 127.85352 304.84961 L 62.431641 286.6875 L 57.957031 236.54102 L 90.017578 236.54102 L 92.291016 262.01367 L 127.85938 271.61719 L 127.88867 271.60938 L 127.88867 271.60742 L 163.50977 261.99219 L 167.2168 220.57227 L 128 220.57227 L 127.88867 220.57227 L 56.53125 220.57227 L 53.667969 188.63672 L 127.88867 188.63672 L 128 188.63672 L 169.98633 188.63672 L 172.89258 155.93164 L 128 155.93164 L 127.88867 155.93164 L 50.820312 155.93164 L 47.917969 123.99414 z "
     id="svg_2" />
  <path
     style="fill:#ffffff"
     inkscape:connector-curvature="0"
     d="m 60.483517,0 38.681316,0 0,16.175825 -22.505493,0 0,16.175825 22.505493,0 0,16.175823 -38.681316,0 0,-48.527473 0,0 z"
     id="svg_7" />
  <path
     style="fill:#ffffff"
     inkscape:connector-curvature="0"
     d="m 106.9011,0 38.68131,0 0,14.065934 -22.50549,0 0,2.813188 22.50549,0 0,32.351648 -38.68131,0 0,-14.76923 22.50549,0 0,-2.813189 -22.50549,0 0,-31.648352 0,0 z"
     id="svg_8" />
  <path
     style="fill:#ffffff"
     inkscape:connector-curvature="0"
     d="M 153.31868,0 192,0 l 0,14.065934 -22.50549,0 0,2.813188 22.50549,0 0,32.351648 -38.68132,0 0,-14.76923 22.50549,0 0,-2.813189 -22.50549,0 0,-31.648352 0,0 z"
     id="svg_9" />
</svg>
