<svg width="256" height="361" xmlns="http://www.w3.org/2000/svg" preserveAspectRatio="xMidYMid">

 <g>
  <title>background</title>
  <rect fill="none" id="canvas_background" height="402" width="582" y="-1" x="-1"/>
 </g>
 <g>
  <title>Layer 1</title>
  <path fill-opacity="0.3" id="svg_2" fill="#ffffff" d="m127.843864,360.087921l-104.18215,-28.921692l-23.216528,-260.400513l255.109623,0l-23.241135,260.359741l-104.46981,28.962463l0,0z"/>
  <path fill-opacity="0.4" id="svg_3" fill="#ffffff" d="m212.416702,314.546631l19.861099,-222.489311l-104.277802,0l0,245.892937l84.416702,-23.403625l0,0z"/>
  <path id="svg_4" fill="#EBEBEB" d="m53.668571,188.636139l2.862419,31.936691l71.469009,0l0,-31.936691l-74.331429,0l0,0z"/>
  <path id="svg_5" fill="#EBEBEB" d="m47.917011,123.994728l2.90321,31.937401l77.179779,0l0,-31.937401l-80.082989,0l0,0z"/>
  <path id="svg_6" fill="#EBEBEB" d="m128,271.580139l-0.139954,0.037262l-35.568527,-9.604218l-2.273758,-25.471298l-32.059784,0l4.474373,50.145767l65.420662,18.161224l0.146988,-0.040802l0,-33.227936l0,0z"/>
  <path id="svg_7" fill="#ffffff" d="m60.483517,0l38.681316,0l0,16.175825l-22.505493,0l0,16.175825l22.505493,0l0,16.175823l-38.681316,0l0,-48.527473l0,0z"/>
  <path id="svg_8" fill="#ffffff" d="m106.9011,0l38.681313,0l0,14.065934l-22.505493,0l0,2.813188l22.505493,0l0,32.351648l-38.681313,0l0,-14.76923l22.505486,0l0,-2.813189l-22.505486,0l0,-31.648352l0,0z"/>
  <path id="svg_9" fill="#ffffff" d="m153.31868,0l38.68132,0l0,14.065934l-22.505493,0l0,2.813188l22.505493,0l0,32.351648l-38.68132,0l0,-14.76923l22.505493,0l0,-2.813189l-22.505493,0l0,-31.648352l0,0z"/>
  <path id="svg_10" fill="#FFFFFF" d="m202.12677,188.636139l5.765625,-64.641411l-80.002815,0l0,31.937401l45.002556,0l-2.906021,32.70401l-42.096535,0l0,31.936691l39.326942,0l-3.707077,41.419968l-35.619865,9.614044l0,33.226563l65.47271,-18.145752l0.480347,-5.395691l7.504883,-84.079834l0.779251,-8.575989l0,0z"/>
 </g>
</svg>