<svg width="256" height="326" xmlns="http://www.w3.org/2000/svg" preserveAspectRatio="xMidYMid">

 <g>
  <title>background</title>
  <rect fill="none" id="canvas_background" height="402" width="582" y="-1" x="-1"/>
 </g>
 <g>
  <title>Layer 1</title>
  <g id="svg_1" fill="#2BA977">
   <path fill="#ffffff" id="svg_2" d="m114.784264,0l53.277992,0l0,244.191116c-27.290405,5.16217 -47.381073,7.193069 -69.117409,7.193069c-65.071838,-0.067917 -98.944847,-29.139099 -98.944847,-84.972061c0,-53.795265 35.93008,-88.707855 91.607986,-88.707855c8.639687,0 15.22229,0.679237 23.176277,2.716934l0,-80.421204zm1.86718,124.426651c-6.239777,-2.037704 -11.382431,-2.716934 -17.965042,-2.716934c-26.947548,0 -42.512691,16.437439 -42.512691,45.243713c0,28.045547 14.879436,43.532059 42.169849,43.532059c5.896919,0 10.696739,-0.332825 18.307884,-1.351669l0,-84.707169z"/>
   <path fill="#ffffff" id="svg_3" d="m255.186905,84.260567l0,122.261971c0,42.105667 -3.154175,62.353592 -12.410965,79.809891c-8.639679,16.783875 -20.02211,27.366302 -43.541229,39.055908l-49.438141,-23.297699c23.519119,-10.928864 34.90155,-20.587555 42.169846,-35.326904c7.611145,-15.072189 10.011047,-32.528473 10.011047,-78.444641l0,-104.058525l53.209442,0l0,0z"/>
   <path fill="#ffffff" id="svg_4" d="m196.608002,0l53.278,0l0,54.13488l-53.278,0l0,-54.13488l0,0z"/>
  </g>
 </g>
</svg>