<svg width="256" height="256" xmlns="http://www.w3.org/2000/svg" preserveAspectRatio="xMidYMid">

 <g>
  <title>background</title>
  <rect fill="none" id="canvas_background" height="402" width="582" y="-1" x="-1"/>
 </g>
 <g>
  <title>Layer 1</title>
  <g id="svg_1">
   <path id="svg_2" fill="#ffffff" d="m251.172241,116.593513l-111.773483,-111.76506c-6.432327,-6.437937 -16.87291,-6.437937 -23.313652,0l-23.209717,23.209719l29.442604,29.44261c6.842422,-2.311703 14.687607,-0.761204 20.142426,4.693626c5.480118,5.488541 7.019379,13.401131 4.651505,20.266022l28.375229,28.375237c6.864883,-2.365074 14.785919,-0.834236 20.268829,4.657112c7.662613,7.659798 7.662613,20.075012 0,27.740433c-7.665405,7.665421 -20.080627,7.665421 -27.748856,0c-5.763809,-5.769424 -7.187912,-14.235367 -4.269485,-21.336205l-26.462402,-26.462395l-0.002808,69.637589c1.867905,0.926926 3.631882,2.160019 5.187988,3.710526c7.662613,7.65979 7.662613,20.075012 0,27.746048c-7.665405,7.662598 -20.086243,7.662598 -27.740425,0c-7.662605,-7.671036 -7.662605,-20.086258 0,-27.746048c1.893181,-1.890381 4.084099,-3.320099 6.421082,-4.280731l0,-70.28643c-2.336983,-0.955017 -4.525093,-2.376312 -6.421082,-4.280724c-5.805939,-5.797516 -7.20195,-14.316826 -4.227356,-21.445747l-29.021278,-29.026897l-76.640103,76.634487c-6.440746,6.443558 -6.440746,16.884132 0,23.322075l111.773488,111.767868c6.435135,6.437958 16.872902,6.437958 23.31646,0l111.251038,-111.24823c6.437927,-6.440735 6.437927,-16.88694 0,-23.324883"/>
  </g>
 </g>
</svg>