<svg height="1267" width="642" xmlns="http://www.w3.org/2000/svg">

  <g>
    <title>background</title>
    <rect fill="none" height="1269" id="canvas_background" width="644" x="-1" y="-1"/>
  </g>

  <g>
    <title>Layer 1</title>

    <g fill-rule="evenodd" fill="none" id="Page-1">
      <g fill="#000000" id="google-nexus-5">
        <g id="Page-1">
          <g id="google-nexus-5-(front)">

            <path
              d="m636,1204l0,-965l4.993164,0c0.55603,0 1.006836,-0.455536 1.006836,-0.994919l0,-79.010162c0,-0.549484 -0.449951,-0.994919 -1.006836,-0.994919l-4.993164,0l0,-94l-0.010681,0c0.019531,-0.32003 0.019714,-0.645901 -0.000549,-0.976479c0,0 0.487915,-15.010693 -8.446655,-25.280052c-8.93457,-10.26936 -16.893555,-12.08086 -16.893555,-12.08086c-4.043396,-1.776508 -10.899109,-3.808489 -15.201843,-4.782709c0,0 -12.628906,-3.3855 -48.639465,-8.22905c-21.423645,-2.88154 -55.11261,-5.92884 -74.765015,-6.96623c-22.024353,-1.16261 -51.18631,-3.36121 -79.309753,-4.15425c-31.840088,-0.89784 -61.433502,-0.42339 -70.732483,-0.23202c-9.298981,-0.19137 -38.892395,-0.66582 -70.732483,0.23202c-28.123444,0.79304 -57.2854,2.99164 -79.309738,4.15425c-19.652435,1.03739 -53.341415,4.08469 -74.765007,6.96623c-36.010612,4.84355 -48.639523,8.22905 -48.639523,8.22905c-4.302719,0.97422 -11.158409,3.006201 -15.201797,4.782709c0,0 -7.958971,1.811501 -16.893562,12.08086c-8.934589,10.26936 -8.44667,25.280052 -8.44667,25.280052c-0.02022,0.330578 -0.02004,0.656448 -0.01122,0.976479l0,178l-5.99315,0c-0.55607,0 -1.00685,0.438232 -1.00685,0.999924l0,197.000168c0,0.552216 0.44995,0.999908 1.00685,0.999908l5.99315,0l0,763c-0.00882,0.320068 -0.009,0.645874 0.01122,0.97644c0,0 -0.48792,15.010742 8.44667,25.280029c8.934591,10.269409 16.893562,12.080933 16.893562,12.080933c4.043388,1.776489 10.899078,3.808472 15.201797,4.782715c0,0 12.62891,3.385498 48.639523,8.229004c21.423592,2.881592 55.112572,5.928833 74.765007,6.966309c22.024338,1.162598 51.186295,3.361206 79.309738,4.154175c31.840088,0.897827 61.433502,0.423462 70.732483,0.232056c9.298981,0.191406 38.892395,0.665771 70.732483,-0.232056c28.123444,-0.792969 57.2854,-2.991577 79.309753,-4.154175c19.652405,-1.037476 53.34137,-4.084717 74.765015,-6.966309c36.010559,-4.843506 48.639465,-8.229004 48.639465,-8.229004c4.302734,-0.974243 11.158447,-3.006226 15.201843,-4.782715c0,0 7.958984,-1.811523 16.893555,-12.080933c8.93457,-10.269287 8.446655,-25.280029 8.446655,-25.280029c0.020264,-0.330566 0.020081,-0.656372 0.000549,-0.97644l0.010681,0l0,0zm-314,-1130c7.731995,0 14,-6.268013 14,-14c0,-7.731991 -6.268005,-14 -14,-14c-7.731995,0 -14,6.268009 -14,14c0,7.731987 6.268005,14 14,14l0,0zm-287,37l0,1016l574,0l0,-1016l-574,0l0,0zm72.5,-37c3.037567,0 5.5,-2.462433 5.5,-5.5c0,-3.037567 -2.462433,-5.5 -5.5,-5.5c-3.037567,0 -5.5,2.462433 -5.5,5.5c0,3.037567 2.462433,5.5 5.5,5.5l0,0z"
              id="Shape"/>

          </g>
        </g>
      </g>
    </g>

  </g>
</svg>
