<?xml version="1.0" encoding="UTF-8" standalone="no"?>
<svg
   xmlns:dc="http://purl.org/dc/elements/1.1/"
   xmlns:cc="http://creativecommons.org/ns#"
   xmlns:rdf="http://www.w3.org/1999/02/22-rdf-syntax-ns#"
   xmlns:svg="http://www.w3.org/2000/svg"
   xmlns="http://www.w3.org/2000/svg"
   xmlns:sodipodi="http://sodipodi.sourceforge.net/DTD/sodipodi-0.dtd"
   xmlns:inkscape="http://www.inkscape.org/namespaces/inkscape"
   width="256"
   height="361"
   preserveAspectRatio="xMidYMid"
   id="svg2"
   version="1.1"
   inkscape:version="0.91 r13725"
   sodipodi:docname="html-5-white.svg">
  <metadata
     id="metadata27">
    <rdf:RDF>
      <cc:Work
         rdf:about="">
        <dc:format>image/svg+xml</dc:format>
        <dc:type
           rdf:resource="http://purl.org/dc/dcmitype/StillImage" />
        <dc:title></dc:title>
      </cc:Work>
    </rdf:RDF>
  </metadata>
  <defs
     id="defs25" />
  <sodipodi:namedview
     pagecolor="#ffffff"
     bordercolor="#666666"
     borderopacity="1"
     objecttolerance="10"
     gridtolerance="10"
     guidetolerance="10"
     inkscape:pageopacity="0"
     inkscape:pageshadow="2"
     inkscape:window-width="1366"
     inkscape:window-height="745"
     id="namedview23"
     showgrid="false"
     inkscape:zoom="1.3074792"
     inkscape:cx="135.14949"
     inkscape:cy="195.74546"
     inkscape:window-x="-8"
     inkscape:window-y="-8"
     inkscape:window-maximized="1"
     inkscape:current-layer="svg2" />
  <g
     id="g4">
    <title
       id="title6">background</title>
    <rect
       fill="none"
       id="canvas_background"
       height="402"
       width="582"
       y="-1"
       x="-1" />
  </g>
  <path
     style="fill:#ffffff;fill-opacity:1"
     d="M 0.4453125 70.224609 L 23.662109 330.625 L 127.84375 359.54688 L 232.31445 330.58398 L 255.55469 70.224609 L 0.4453125 70.224609 z M 47.917969 123.99414 L 127.88867 123.99414 L 128 123.99414 L 207.89258 123.99414 L 207.12891 132.5625 L 205.67383 148.75391 L 205.0332 155.93164 L 128 155.93164 L 127.88867 155.93164 L 82.820312 155.93164 L 85.738281 188.63672 L 127.88867 188.63672 L 128 188.63672 L 202.12695 188.63672 L 201.34766 197.21289 L 193.8418 281.29102 L 193.36133 286.6875 L 128 304.80273 L 128 304.80859 L 127.85352 304.84961 L 62.431641 286.6875 L 57.957031 236.54102 L 90.017578 236.54102 L 92.291016 262.01367 L 127.85938 271.61719 L 127.88867 271.60938 L 127.88867 271.60742 L 163.50977 261.99219 L 167.2168 220.57227 L 128 220.57227 L 127.88867 220.57227 L 56.53125 220.57227 L 48.681641 132.5625 L 47.917969 123.99414 z "
     id="svg_2" />
  <path
     style="fill:#ffffff"
     inkscape:connector-curvature="0"
     d="m 24.180748,0 16.229977,0 0,16.035164 14.846596,0 0,-16.035164 16.230679,0 0,48.558418 -16.229977,0 0,-16.26022 -14.846592,0 0,16.26022 -16.22998,0 0,-48.558418 -7.02e-4,0 0,0 z"
     id="svg_6" />
  <path
     style="fill:#ffffff"
     inkscape:connector-curvature="0"
     d="m 92.830948,15.562138 -14.288177,0 0,-16.102682 44.814069,0 0,16.102682 -14.29451,0 0,32.455738 -16.230679,0 0,-32.455738 -7.02e-4,0 0,0 z"
     id="svg_7" />
  <path
     style="fill:#ffffff"
     inkscape:connector-curvature="0"
     d="M 130.46927,0 147.3927,0 157.8029,17.061977 168.20254,0 l 16.92977,0 0,48.558418 -16.16316,0 0,-24.06822 -11.16625,17.26523 -0.2792,0 -11.17398,-17.26523 0,24.06822 -15.88045,0 0,-48.558418 0,0 z"
     id="svg_8" />
  <path
     style="fill:#ffffff"
     inkscape:connector-curvature="0"
     d="m 193.20967,0 16.23489,0 0,32.507782 22.8241,0 0,16.050636 -39.05899,0 0,-48.558418 0,0 z"
     id="svg_9" />
</svg>
