<svg width="256" height="361" xmlns="http://www.w3.org/2000/svg" preserveAspectRatio="xMidYMid">

 <g>
  <title>background</title>
  <rect fill="none" id="canvas_background" height="402" width="582" y="-1" x="-1"/>
 </g>
 <g>
  <title>Layer 1</title>
  <path fill-opacity="0.3" id="svg_2" fill="#ffffff" d="m255.55481,70.225174l-23.241135,260.359726l-104.46981,28.962463l-104.18215,-28.921692l-23.216528,-260.400497l255.109623,0l0,0z"/>
  <path fill-opacity="0.4" id="svg_3" fill="#ffffff" d="m128,337.950256l84.416702,-23.403625l19.861099,-222.489311l-104.277802,0l0,245.892937l0,0z"/>
  <path id="svg_4" fill="#EBEBEB" d="m82.820221,155.932129l45.179779,0l0,-31.937401l-80.082989,0l0.764484,8.56826l7.849495,88.009842l71.469009,0l0,-31.936691l-42.261101,0l-2.918678,-32.70401l0,0z"/>
  <path id="svg_5" fill="#EBEBEB" d="m90.017761,236.541885l-32.059784,0l4.474373,50.145767l65.420662,18.161224l0.146988,-0.040802l0,-33.227936l-0.139954,0.037262l-35.568527,-9.604218l-2.273758,-25.471298l0,0z"/>
  <path id="svg_6" fill="#ffffff" d="m24.180748,0l16.229977,0l0,16.035164l14.846596,0l0,-16.035164l16.230679,0l0,48.558418l-16.229977,0l0,-16.26022l-14.846592,0l0,16.26022l-16.22998,0l0,-48.558418l-0.000702,0l0,0z"/>
  <path id="svg_7" fill="#ffffff" d="m92.830948,15.562138l-14.288177,0l0,-16.102682l44.814064,0l0,16.102682l-14.294502,0l0,32.455738l-16.230682,0l0,-32.455738l-0.000702,0l0,0z"/>
  <path id="svg_8" fill="#ffffff" d="m130.469269,0l16.923431,0l10.410202,17.061977l10.399643,-17.061977l16.929764,0l0,48.558418l-16.163162,0l0,-24.06822l-11.166245,17.26523l-0.279205,0l-11.173981,-17.26523l0,24.06822l-15.880447,0l0,-48.558418l0,0z"/>
  <path id="svg_9" fill="#ffffff" d="m193.209671,0l16.234894,0l0,32.507782l22.824097,0l0,16.050636l-39.05899,0l0,-48.558418l0,0z"/>
  <path id="svg_10" fill="#FFFFFF" d="m127.88958,220.57283l39.326942,0l-3.707077,41.419968l-35.619865,9.614044l0,33.226563l65.47271,-18.145752l0.480347,-5.395691l7.504883,-84.079834l0.779251,-8.575989l-74.23719,0l0,31.936691l0,0z"/>
  <path id="svg_11" fill="#FFFFFF" d="m127.88958,155.854065l0,0.078064l77.143211,0l0.640701,-7.178543l1.455124,-16.190598l0.763779,-8.56826l-80.002815,0l0,31.859337l0,0z"/>
 </g>
</svg>