<svg width="512" height="116" xmlns="http://www.w3.org/2000/svg">

 <g>
  <title>background</title>
  <rect fill="none" id="canvas_background" height="402" width="582" y="-1" x="-1"/>
 </g>
 <g>
  <title>Layer 1</title>
  <g id="svg_1" fill-rule="evenodd" fill="none">
   <g id="svg_2">
    <path id="svg_3" fill="#ffffff" d="m489.718201,8.646132l21.420624,0.117699c0,0 -39.825165,53.964017 -43.07666,58.362115c-1.056366,1.424187 -2.661041,2.960182 -3.474152,4.863998c-2.056824,4.786514 -4.168579,15.285461 -4.168579,15.285461l-19.599213,0.097099c0,0 3.049438,-10.94326 2.923889,-16.772415c-0.110809,-5.092537 -2.710052,-10.178204 -4.168579,-15.285454c-1.473206,-5.169041 -3.474152,-15.285458 -3.474152,-15.285458l20.149475,0l2.778717,11.116875l30.688629,-42.499921"/>
    <path id="svg_4" fill="#ffffff" d="m449.157379,20.02685c3.95282,2.38345 6.378448,15.528708 6.378448,15.528708c0,0 -20.684021,0.305042 -31.940186,0.305042l-9.72702,0l-11.81131,51.414806l-18.064178,0c0,0 11.241455,-55.874701 13.895599,-66.004847c0.861176,-3.278957 5.891937,-2.716934 14.388977,-2.716934l13.56897,0c8.761871,0 19.002838,-1.118162 23.310699,1.473225"/>
    <path id="svg_5" fill="#ffffff" d="m365.059937,45.066788c0,0 0.562988,-3.300533 -1.910706,-7.121899c-2.111755,-3.258362 -4.063629,-4.015572 -9.62207,-4.189178c-15.695435,-0.493366 -15.390381,11.13747 -15.390381,11.13747l26.923157,0.173607l0,0zm17.022522,-13.318865c2.300079,8.295969 -2.08429,27.791204 -2.08429,27.791204c0,0 -22.89386,-0.38253 -35.433929,0c-3.898865,0.118683 -8.566681,-0.423725 -9.72702,1.389854c-1.633118,2.542343 0.596344,6.454929 2.48642,8.107647c2.175507,1.903816 6.41275,2.119598 7.935028,2.313805c10.178192,1.292755 31.48114,0.333488 31.48114,0.333488l-3.689941,16.340843c0,0 -30.104034,1.508537 -45.16095,-2.08429c-2.972931,-0.708168 -5.759491,-2.139221 -7.642731,-4.168579c-0.513947,-0.555161 -0.959259,-1.31237 -1.44577,-1.965614c-0.388397,-0.521805 -1.520294,-2.237305 -2.028381,-3.592827c-3.438812,-9.164017 0.403137,-26.721104 4.168579,-36.128368c0.437469,-1.090694 0.986755,-2.472702 1.564453,-3.647755c0.721893,-1.465378 1.332977,-3.11908 1.909698,-3.994972c0.388428,-0.604198 0.869049,-0.993593 1.272156,-1.563463c0.464935,-0.67384 1.006348,-1.32708 1.507568,-1.9097c1.388855,-1.612507 2.966064,-2.752247 4.863007,-4.168583c6.273468,-4.697256 17.62674,-8.345013 31.26535,-6.948292c5.134705,0.527693 12.889252,2.36187 16.675323,7.642729c1.014191,1.410452 1.514404,4.209778 2.08429,6.252872l0,0l0,0z"/>
    <path id="svg_6" fill="#ffffff" d="m299.228699,18.49085l17.515869,-0.10397c0,0 -9.761322,46.307554 -14.736176,68.888525l-20.149445,0c-14.082947,0 -26.624008,1.743935 -31.959793,-8.33815c-5.175903,-9.788811 -0.236374,-25.887386 2.08429,-36.823784c1.639969,-7.739834 5.093521,-23.559847 5.093521,-23.559847l18.147552,-0.166744c0,0 -5.127838,24.629946 -7.261169,36.927755c-0.764099,4.404964 -2.340302,8.552952 -0.694458,11.81131c1.563477,3.099464 3.75174,3.321136 10.421478,3.474144c2.112732,0.049042 9.032562,0 9.032562,0l12.505768,-52.10924"/>
    <path id="svg_7" fill="#ffffff" d="m217.243958,51.840492c1.834167,-6.516724 4.508926,-13.582714 4.168579,-19.454041c-0.367813,-6.280336 -5.633957,-11.998652 -9.031601,-13.200184c-10.234116,-3.613425 -19.814987,1.437916 -23.62262,5.557457c-4.926773,5.336765 -6.594208,11.569042 -8.33815,20.149456c-1.29863,6.370575 -2.361862,13.096214 0,18.064182c4.182312,8.782467 17.223602,6.864918 31.26535,6.948292c2.08429,-5.585899 3.807632,-11.860352 5.558441,-18.065163l0,0l0,0zm24.318039,-25.706913c2.000916,14.548843 -5.676147,30.60622 -10.963867,44.570484c5.391693,0.486496 10.116409,-0.075523 10.456772,0.326622c0.35408,0.521805 -3.613434,16.668442 -4.996414,16.709633c-4.279419,0.111816 -18.459473,0.229523 -24.372971,0.229523c-19.294159,0 -37.34462,1.257439 -46.54982,-8.337166c-3.737991,-3.897873 -6.32251,-10.582314 -6.948288,-15.285454c-1.042648,-7.85165 0.26384,-16.494839 2.08429,-23.622623c1.646835,-6.43433 3.758591,-12.506727 6.948288,-18.065165c8.107651,-14.152583 22.212173,-24.65741 45.855392,-22.232766c4.585434,0.472766 11.171799,2.480551 15.285446,4.863019c0.284454,0.167724 1.279022,0.959264 1.507553,1.098544c5.558441,3.53692 10.62352,11.978054 11.693619,19.745349l0,0l0,0z"/>
    <path id="svg_8" fill="#ffffff" d="m156.193344,18.574223c-1.167191,5.315187 -2.334396,11.339525 -3.564377,16.591938l-19.454041,0c1.507553,-5.822283 2.661026,-11.610237 4.168579,-16.67531c6.225418,0 12.013367,0.083372 18.849838,0.083372"/>
    <path id="svg_9" fill="#ffffff" d="m132.480484,40.029179l18.758621,0c-2.452103,13.576828 -7.308258,35.476109 -11.115891,50.719387c-2.383438,9.53968 -3.974365,16.501701 -10.42244,21.53833c-0.576736,0.452171 -0.909241,0.237366 -1.38887,0.695419c-1.188782,1.132874 -6.684441,2.44622 -9.727013,2.778725c-4.947372,0.535545 -10.540138,0.069641 -16.619408,-0.054924c1.590927,-5.815422 3.390778,-12.798042 4.808098,-18.009254c14.81955,1.792976 15.195213,-12.214439 18.064178,-25.706917c1.660568,-7.795738 6.691307,-28.833836 7.642723,-31.960766"/>
    <g id="svg_10" fill="#21609B">
     <path fill="#ffffff" id="svg_11" d="m88.708412,75.464088l-0.402145,1.041656c-6.851189,13.339462 -18.98912,21.524597 -36.302956,21.885544c-8.093918,0.166748 -15.806286,-1.909698 -20.843893,-4.168579c-10.872644,-4.884598 -20.017042,-13.943665 -25.011495,-23.62262c-7.164076,-13.875 -8.455846,-33.176029 6.440215,-47.592457c0.229518,0 -1.806712,3.125946 -1.577195,3.125946l-0.409992,1.333946c-10.734345,33.606621 22.336737,62.406124 54.484842,59.112453c7.726097,-0.791534 17.578667,-5.022896 23.62262,-11.115891"/>
     <path fill="#ffffff" id="svg_12" d="m69.254372,61.567509c8.088036,0.055908 16.536034,-3.724258 21.53833,-9.031601c-4.376518,11.110008 -17.049011,18.251522 -34.044075,15.979893c-14.229088,-1.903816 -27.784336,-16.223141 -29.181055,-30.570911c-1.021059,-10.442055 2.618851,-16.67433 8.615725,-24.233686c-2.084293,3.953777 -2.863083,7.003218 -3.057289,8.948231c-2.278498,22.587831 18.043587,38.790377 36.128365,38.908075"/>
     <path fill="#ffffff" id="svg_13" d="m89.980568,33.512459c-1.257439,2.883678 -8.49704,8.330299 -11.693611,9.011005c-12.65876,2.696339 -20.766403,-3.306423 -25.012474,-10.137012c-0.631664,-1.021057 -1.798866,-3.806652 -2.007786,-4.515799c-1.646835,-5.599634 -0.889626,-14.069212 4.023418,-18.45358c-1.480091,4.168582 -1.695877,9.011003 -0.917088,12.158528c0.471783,1.903816 1.909698,5.225931 3.348598,7.316107c2.618847,3.807632 4.279415,4.732567 7.642723,6.754086c1.514427,0.910221 3.139679,1.639969 3.841965,1.841042c3.188721,0.937687 9.921227,3.411373 20.774254,-3.974377"/>
    </g>
   </g>
  </g>
 </g>
</svg>