<?xml version="1.0" encoding="UTF-8" standalone="no"?>
<svg
   xmlns:dc="http://purl.org/dc/elements/1.1/"
   xmlns:cc="http://creativecommons.org/ns#"
   xmlns:rdf="http://www.w3.org/1999/02/22-rdf-syntax-ns#"
   xmlns:svg="http://www.w3.org/2000/svg"
   xmlns="http://www.w3.org/2000/svg"
   xmlns:sodipodi="http://sodipodi.sourceforge.net/DTD/sodipodi-0.dtd"
   xmlns:inkscape="http://www.inkscape.org/namespaces/inkscape"
   version="1.1"
   width="359.623"
   height="188.368"
   viewBox="0 0 359.62 188.37"
   enable-background="new 0 0 359.62 188.37"
   xml:space="preserve"
   id="svg3336"
   inkscape:version="0.91 r13725"
   sodipodi:docname="materialize-white.svg"><metadata
     id="metadata3356"><rdf:RDF><cc:Work
         rdf:about=""><dc:format>image/svg+xml</dc:format><dc:type
           rdf:resource="http://purl.org/dc/dcmitype/StillImage" /></cc:Work></rdf:RDF></metadata><defs
     id="defs3354" /><sodipodi:namedview
     pagecolor="#ffffff"
     bordercolor="#666666"
     borderopacity="1"
     objecttolerance="10"
     gridtolerance="10"
     guidetolerance="10"
     inkscape:pageopacity="0"
     inkscape:pageshadow="2"
     inkscape:window-width="1366"
     inkscape:window-height="745"
     id="namedview3352"
     showgrid="true"
     inkscape:zoom="1.5289221"
     inkscape:cx="97.222661"
     inkscape:cy="139.36486"
     inkscape:window-x="-8"
     inkscape:window-y="-8"
     inkscape:window-maximized="1"
     inkscape:current-layer="g3338"
     showguides="false" /><g
     id="g3338"><path
       fill="#FBD0D5"
       fill-opacity="1"
       stroke-linejoin="round"
       d="M 0,104.94L 1.37519,105.69L 4.75066,109.316L 7.8761,112.066C 7.8761,112.066 10.6265,116.067 10.6265,116.567C 10.6265,117.067 12.5017,120.067 12.5017,120.067L 14.8771,126.193L 17.2524,133.819L 19.5027,142.821L 20.7529,148.821L 23.0032,160.448L 25.0035,168.074L 27.1288,176.575C 27.1288,176.575 28.879,182.451 29.1291,183.201C 29.3791,183.951 30.8793,187.077 30.8793,187.077L 34.4736,188.077L 37.5052,187.952L 40.3806,181.326L 46.1627,171.137L 49.5069,160.323L 54.0075,143.571L 56.2578,133.694L 58.7582,121.693L 60.5084,114.442L 61.3836,112.191L 59.0082,110.066L 55.6328,106.316L 54.3826,104.315L 0,104.94 Z "
       id="path3340"
       style="fill:#ffffff;fill-opacity:0.72093022" /><path
       fill="#F7A1AB"
       fill-opacity="1"
       stroke-linejoin="round"
       d="M 117.673,82.6875L 120.048,84.9378L 122.048,88.8134C 122.048,88.8134 122.799,91.8138 123.549,94.5642C 124.299,97.3146 126.424,106.941 126.924,109.441C 127.424,111.942 130.925,127.069 131.175,129.194C 131.425,131.319 133.925,143.696 134.3,145.071C 134.675,146.446 137.176,154.823 137.426,157.198C 137.676,159.573 140.301,170.7 140.551,171.575C 140.801,172.45 142.676,177.201 142.926,177.701C 143.176,178.201 144.802,182.701 146.552,184.452C 148.302,186.202 148.802,186.952 150.427,187.702C 152.053,188.452 152.303,187.972 152.303,187.972C 152.303,187.972 155.263,184.684 157.803,180.305C 160.595,175.491 161.096,174.846 163.471,169.47C 165.846,164.094 166.68,161.073 168.555,155.198C 170.43,149.322 169.93,151.697 172.055,142.321C 174.181,132.945 175.181,129.444 176.056,123.693C 176.931,117.942 177.681,115.067 178.931,109.191C 180.182,103.315 180.432,104.691 180.432,104.691L 179.556,104.191C 179.556,104.191 177.806,103.565 176.306,100.065C 174.806,96.5645 173.556,92.5639 172.18,85.4379C 170.805,78.3119 170.68,80.1872 168.68,69.1856C 166.68,58.1841 165.555,56.8089 163.804,45.9324C 162.054,35.0559 162.179,34.0557 159.929,26.8047C 157.678,19.5538 157.553,17.8035 154.053,11.4276C 150.552,5.05172 152.303,5.80181 148.802,3.17648C 145.302,0.551112 145.802,1.05114 143.927,1.05117C 142.051,1.05117 141.676,2.30136 141.676,2.30136C 141.676,2.30136 144.552,-4.32459 140.676,4.80169C 136.801,13.928 136.05,13.6779 134.3,19.4287C 132.55,25.1795 131.8,24.4294 129.549,32.9306C 127.299,41.4318 126.757,39.2018 125.007,47.328C 123.257,55.4541 123.965,50.4951 121.84,60.7465C 119.715,70.9979 120.673,68.1855 119.423,74.6864C 118.173,81.1873 117.673,82.9376 117.673,82.6875 Z "
       id="path3342"
       style="fill:#ffffff;fill-opacity:0.72093022" /><path
       d="m 235.147,75.743733 c 0,0 2.126,7.907382 3.876,16.31685 1.75,8.409867 1.25,6.275727 4.376,19.705557 3.125,13.43013 7.251,28.24072 8.876,35.26953 1.625,7.0288 2.375,8.40926 5.001,16.69303 2.625,8.28478 1.125,4.39339 5,12.67716 3.876,8.28377 4.126,9.16224 5.001,10.04172 0.875,0.87848 2.125,0.87848 2.125,0.87848 0,0 0.375,1.63145 6.001,-3.6404 5.626,-5.27186 8.335,-9.12008 10.46,-20.41677 2.125,-11.29669 4.125,-26.86026 6.126,-35.26953 2,-8.40927 3.292,-10.83587 3.292,-10.83587 l -0.375,-2.25894 c 0,0 -0.625,0.37649 -1.625,-5.77384 -1.001,-6.15033 -0.751,-3.6404 -3.501,-20.20794 -2.75,-16.567843 -0.75,-10.417713 -5.626,-29.621283 -4.875,-19.20367 -6.001,-25.228404 -9.876,-36.022506 C 270.402,12.484779 268.402,9.3468648 264.902,5.9580385 261.401,2.569162 258.776,1.5650497 258.776,1.5650497 l -2.30812,0.796838 c 0,0 -0.69288,2.3410054 -0.81788,2.8430616 -0.125,0.5020963 -1.125,1.5061383 -4.25,11.4218147 -3.126,9.915527 -4.001,10.668606 -6.376,19.58016 -2.376,8.911454 -3.251,8.409368 -6.001,19.956649 -2.75,11.547382 -3.876,19.831253 -3.876,19.58016 z"
       id="path3344"
       inkscape:connector-curvature="0"
       style="fill:#ffffff;fill-opacity:0.72093022;stroke-linejoin:round"
       sodipodi:nodetypes="cscsccccssccccsccccccccsc" /><path
       fill="#EB6E76"
       fill-opacity="1"
       stroke-linejoin="round"
       d="M 36.5051,188.181C 36.5051,188.181 44.4229,173.429 45.8398,170.845C 47.2566,168.262 50.3821,155.489 52.8824,146.154C 55.3827,136.82 56.5496,129.569 58.7165,121.151C 60.8835,112.733 61.3836,111.65 61.3836,111.65C 61.3836,111.65 64.9674,95.6473 66.1343,88.8131C 67.3011,81.9788 70.8849,64.9764 72.0517,58.5588C 73.2186,52.1413 80.0529,25.3875 81.7198,20.4702C 83.3866,15.5529 89.3771,2.4259 90.1272,1.42578C 90.8773,0.425685 143.405,1.05076 143.405,1.05076L 141.561,3.88456C 135.227,17.9699 135.727,15.0528 132.894,24.3041C 130.06,33.5554 126.559,43.39 124.559,50.2243C 122.559,57.0587 123.726,53.7248 121.142,67.9768C 118.558,82.2288 118.725,80.9786 116.641,91.9802C 114.558,102.982 114.641,102.565 112.974,111.233C 111.307,119.901 111.474,118.234 109.474,127.402C 107.473,136.57 108.974,131.236 105.973,141.904C 102.973,152.572 105.306,146.571 101.473,158.239C 97.6386,169.908 93.5027,180.618 92.6692,183.285C 91.8357,185.952 91.1065,188.202 91.1065,188.202L 36.5051,188.181 Z "
       id="path3346"
       style="fill:#ffffff;fill-opacity:1" /><path
       fill="#EB6E76"
       fill-opacity="1"
       stroke-linejoin="round"
       d="M 268.11,187.702L 323.285,188.368C 323.285,188.368 326.119,184.701 329.619,176.533C 333.12,168.366 334.453,165.032 335.62,161.031C 336.787,157.031 336.62,157.197 337.12,143.862C 337.62,130.527 337.12,128.36 339.12,122.526C 341.121,116.692 347.955,111.191 349.955,110.024C 351.955,108.857 359.623,103.023 359.623,103.023L 305.116,102.19C 305.116,102.19 298.948,108.357 297.448,112.191C 295.948,116.025 292.114,124.693 290.614,133.361C 289.113,142.029 287.113,152.697 286.446,155.03C 285.78,157.364 284.279,167.699 283.279,169.866C 282.279,172.033 279.112,180.201 277.278,181.867C 275.445,183.534 268.444,187.535 268.11,187.702 Z "
       id="path3348"
       style="fill:#ffffff;fill-opacity:1" /><path
       fill="#EB6E76"
       fill-opacity="1"
       stroke-linejoin="round"
       d="M 209.102,188.014L 215.603,166.115L 221.104,144.362L 228.855,111.858L 237.856,67.3515L 245.357,37.0973C 245.357,37.0973 251.608,14.5941 254.108,9.59344C 256.609,4.5928 256.963,1.48809 259.088,1.52981C 261.214,1.57153 207.519,1.52978 207.519,1.52978C 207.519,1.52978 205.018,2.02984 202.935,6.44714C 200.851,10.8645 197.017,17.6987 194.433,27.6167C 191.85,37.5348 188.433,56.9542 187.682,60.4547C 186.932,63.9552 183.765,81.6243 182.765,87.6251C 181.765,93.626 179.681,106.961 178.431,112.045C 177.181,117.129 174.514,132.715 173.931,134.548C 173.347,136.382 171.097,147.717 169.68,150.884C 168.263,154.051 164.346,165.886 162.429,169.637C 160.512,173.387 160.262,175.054 158.012,179.305C 155.761,183.555 152.094,187.722 151.511,188.056C 150.927,188.389 209.269,188.285 209.102,188.014 Z "
       id="path3350"
       style="fill:#ffffff;fill-opacity:1" /></g></svg>