<?xml version="1.0" encoding="UTF-8" standalone="no"?>
<!-- Created with Inkscape (http://www.inkscape.org/) -->
<svg id="svg2" xmlns:rdf="http://www.w3.org/1999/02/22-rdf-syntax-ns#" xmlns="http://www.w3.org/2000/svg" height="568.1" viewBox="0 0 580.49756 568.09918" width="580.5" version="1.1" xmlns:cc="http://creativecommons.org/ns#" xmlns:dc="http://purl.org/dc/elements/1.1/">
 <title id="title4410">MTUCI svg logo optimized</title>
 <metadata id="metadata8">
  <rdf:RDF>
   <cc:Work rdf:about="">
    <dc:format>image/svg+xml</dc:format>
    <dc:type rdf:resource="http://purl.org/dc/dcmitype/StillImage"/>
    <dc:title>MTUCI svg logo optimized</dc:title>
    <dc:date>02.01.2016</dc:date>
    <dc:creator>
     <cc:Agent>
      <dc:title>Igor Morozov</dc:title>
     </cc:Agent>
    </dc:creator>
    <dc:language>Russian</dc:language>
    <dc:subject>
     <rdf:Bag>
      <rdf:li>MTUCI</rdf:li>
     </rdf:Bag>
    </dc:subject>
    <cc:license rdf:resource="http://artlibre.org/licence/lal"/>
   </cc:Work>
   <cc:License rdf:about="http://artlibre.org/licence/lal">
    <cc:permits rdf:resource="http://creativecommons.org/ns#Reproduction"/>
    <cc:permits rdf:resource="http://creativecommons.org/ns#Distribution"/>
    <cc:permits rdf:resource="http://creativecommons.org/ns#DerivativeWorks"/>
    <cc:requires rdf:resource="http://creativecommons.org/ns#ShareAlike"/>
    <cc:requires rdf:resource="http://creativecommons.org/ns#Notice"/>
    <cc:requires rdf:resource="http://creativecommons.org/ns#Attribution"/>
   </cc:License>
  </rdf:RDF>
 </metadata>
 <g id="layer1" transform="translate(-10.722 -10.714)">
  <path id="path4139" d="m11.266 370.89 60.636-244.64 228.52-114.98 230.17 114.87 60.09 242.76-162.58 209.41h-254.91z" stroke="#000" stroke-width="1px" fill="none"/>
 </g>
 <g id="layer9" transform="translate(-10.722 -10.714)">
  <path id="path4235" fill="none" d="m220.87 540.36s18.496 15.668 78.193 15.56c59.005-0.1072 79.566-17.197 79.566-17.197"/>
  <g id="text4253" transform="translate(-2)">
   <path id="path4533" d="m254.39 553.73-4.4607-1.4843 9.618-28.905-15.871 16.564-2.6584-0.88458-2.7149-22.749-9.618 28.905-4.1678-1.3868 11.162-33.545 6.0828 2.024 2.7294 21.653 14.866-15.798 6.1954 2.0615-11.162 33.545z"/>
   <path id="path4535" d="m291.97 525.2-12.584-1.0883-2.6859 31.059-4.6837-0.40503 2.6859-31.059-12.584-1.0883 0.36003-4.1633 29.853 2.5816-0.36004 4.1633z"/>
   <path id="path4537" d="m318.39 520.2-12.807 30.028q-0.76897 1.8212-1.8601 3.0079-1.0674 1.1862-2.3357 1.8542-1.2218 0.61954-2.3805 0.85776-1.1354 0.21398-2.2036 0.23655-0.94952 0.0201-2.3046-0.0463t-1.7354-0.0821l-0.0928-4.3915 0.33233-0.007q0.35707 0.0399 1.1904 0.14109 0.83284 0.0774 1.901 0.0548 0.47476-0.01 1.3278-0.0993 0.85306-0.0893 1.5122-0.36444 0.7536-0.3009 1.4764-0.93364 0.74657-0.63324 1.2437-1.8312l0.81494-1.8934-13.704-25.905 5.1986-0.10985 10.766 20.624 8.8174-21.038 4.8426-0.10232z"/>
   <path id="path4539" d="m350.6 548.3q-1.1986 0.77037-2.1741 1.4326-0.95205 0.6585-2.5529 1.4697-1.3581 0.67584-2.9967 1.2526-1.6114 0.59642-3.6273 0.92134-3.7974 0.61205-7.085 0.0597-3.268-0.57957-5.9317-2.4831-2.6092-1.8642-4.4266-5.0825-1.8212-3.2418-2.5542-7.7893-0.69517-4.3131-0.0241-7.9085 0.6711-3.5954 2.5905-6.3097 1.8604-2.6327 4.8088-4.3344 2.9718-1.7055 6.8161-2.3251 2.8129-0.45338 5.7119-0.22319 2.9225 0.22641 6.6206 1.386l0.88786 5.5086-0.35161 0.0567q-3.2724-1.9497-6.2863-2.5943-3.0139-0.64456-6.2487-0.12318-2.6488 0.42693-4.6421 1.638-1.9737 1.1839-3.347 3.2571-1.3341 2.0188-1.8138 4.8618-0.46005 2.8158 0.10667 6.3319 0.59317 3.6802 2.0046 6.1703 1.4349 2.4864 3.2737 3.8975 1.9204 1.4702 4.2364 1.9627 2.3357 0.46528 4.7735 0.0724 3.352-0.54027 6.097-2.1611 2.745-1.6209 4.9298-4.3299l0.32817-0.0529 0.87653 5.4383z"/>
   <path id="path4541" d="m382.22 538.02-4.2435 1.9674-11.914-25.698-4.0258 33.089-4.3082 1.9974-14.871-32.074 4.2435-1.9674 11.735 25.31 4.0117-32.611 4.502-2.0873 14.871 32.074z"/>
  </g>
 </g>
 <g id="layer10" transform="translate(-10.722 -10.714)">
  <ellipse id="path4266" rx="211.81" ry="209.62" cy="308.56" cx="298.65" fill="none"/>
  <g id="text4268" transform="matrix(0 1 -1 0 607.07 11.408)">
   <path id="path4434" d="m491.63 395.8 20.559 10.888-3.2903 6.2125-15.999-3.697 12.07 11.116-3.2977 6.2265-20.559-10.888 2.0425-3.8565 16.183 8.5711-14.022-12.652 2.1168-3.9968 18.337 4.5043-16.183-8.5711 2.0425-3.8565z"/>
   <path id="path4436" d="m488.63 425.34q2.9106 2.0407 4.2752 4.296 0.99977 1.67 1.3727 3.5983 0.36384 1.9412-0.0158 3.6713-0.49446 2.3085-2.1252 4.6344-2.9517 4.2099-7.3308 4.8995-4.3882 0.70261-9.0399-2.5588-4.6127-3.2341-5.4662-7.573-0.84046-4.3298 2.1021-8.5267 2.979-4.2489 7.323-4.9438 4.357-0.68573 8.9048 2.5028zm-2.6487 4.0542q-3.2354-2.2684-5.9593-1.9494-2.7108 0.32816-4.3234 2.628-1.6125 2.2999-0.99177 4.9251 0.62462 2.6474 3.938 4.9705 3.2744 2.2958 5.8968 1.9832 2.6133-0.29963 4.2805-2.6775 1.6672-2.3778 1.0503-4.981-0.60386-2.594-3.8912-4.8989z"/>
   <path id="path4438" d="m460.51 456.71-4.1044 2.4459q-2.1517-3.3125-1.9168-6.3726 0.23631-3.0377 2.7236-5.8376 3.0775-3.4643 7.4198-3.5973 4.3542-0.12254 8.4591 3.5241 4.3422 3.8574 4.7468 8.2286 0.41643 4.3818-2.8297 8.0358-2.8351 3.1914-6.492 3.5088-2.1691 0.19569-4.7842-1.066l2.2576-4.2139q1.6265 0.89303 3.2843 0.60392 1.6472-0.27724 2.8909-1.6772 1.7179-1.9338 1.4048-4.377-0.3236-2.4314-3.4319-5.1927-3.2982-2.9299-5.752-2.9872-2.4539-0.0572-4.1402 1.841-1.2436 1.3999-1.2497 3.1988-0.006 1.7989 1.5141 3.9347z"/>
   <path id="path4440" d="m463.94 474.31-3.4596 3.1774-6.6983-7.2931q-1.0497 1.1796-1.0187 2.0345t1.1852 3.8241q1.4795 3.7692 1.0152 5.4454-0.45267 1.6654-2.8486 3.866-0.11688 0.10734-0.49184 0.47326l-2.3508-2.5596 0.50162-0.43916q1.0636-0.97683 1.3076-1.6965 0.25473-0.70798 0.0648-1.5247-0.18991-0.81673-1.1288-3.0355-0.50025-1.1781-0.6737-2.1177-0.18514-0.92884 0.26683-2.3135-1.4576 0.73545-3.1181 0.429-1.6721-0.29572-4.2359-1.2808l-6.6528-2.5516 4.0673-3.7356 6.1137 2.5511q0.13263 0.0506 0.53146 0.17983 0.14431 0.0398 1.1731 0.40928 1.8255 0.65041 2.5478 0.5688 0.71058-0.0709 1.5979-0.86426l-6.8915-7.5035 3.4596-3.1774 15.737 17.134z"/>
   <path id="path4442" d="m441.27 479.06q2.1154 2.8567 2.6965 5.4279 0.42007 1.9005 0.16382 3.8478-0.269 1.9566-1.1765 3.4778-1.1994 2.0335-3.4822 3.724-4.132 3.0598-8.5043 2.3286-4.3851-0.72179-7.766-5.2874-3.3526-4.5273-2.7895-8.9134 0.57254-4.3733 4.6918-7.4237 4.1702-3.0882 8.511-2.373 4.3501 0.72793 7.6555 5.1915zm-3.7952 3.0079q-2.3516-3.1755-5.0364-3.7346-2.6754-0.54634-4.9327 1.1252-2.2573 1.6716-2.499 4.3584-0.24502 2.709 2.1632 5.961 2.3799 3.2138 4.9665 3.7469 2.5739 0.54255 4.9077-1.1857t2.5722-4.3929q0.24785-2.6519-2.1415-5.8784z"/>
   <path id="path4444" d="m424.96 505.19-8.0413 4.6706q-2.3877 1.3868-3.6736 1.8585-1.2917 0.49333-2.5777 0.39612-1.2998-0.0892-2.531-0.78721-1.2232-0.68423-1.9804-1.9879-0.82094-1.4134-0.73794-3.0399 0.0693-1.6185 1.0302-2.9657-2.1496 0.53285-3.8869-0.18318-1.7372-0.71604-2.7494-2.4588-0.79704-1.3722-0.90927-3.0505-0.11798-1.6565 0.53922-3.0843 0.65145-1.4061 2.1671-2.525 0.95169-0.69958 4.8192-2.9826l6.8475-3.9772 11.685 20.117zm-6.0066-0.98904-2.7019-4.6519-2.6621 1.5462q-2.374 1.3789-2.9105 1.7822-0.97117 0.72924-1.2185 1.662-0.25309 0.95448 0.3128 1.9288 0.54198 0.93312 1.3982 1.2066 0.85045 0.29516 1.9376-0.17114 0.64363-0.28208 3.5116-1.9479l2.3328-1.355zm-4.6467-8.0001-3.1244-5.3792-3.7599 2.1839q-2.1956 1.2753-2.7139 1.7415-0.81004 0.69071-1.006 1.6487-0.20173 0.9797 0.41995 2.05 0.52605 0.90567 1.3318 1.2818 0.80575 0.37618 1.8102 0.17816 0.99072-0.19005 3.7626-1.8001l3.2796-1.9049z"/>
   <path id="path4446" d="m383.93 509.87-4.748 0.53377q-0.59274-3.9053 0.88433-6.5956 1.469-2.6694 4.8902-4.1931 4.233-1.8852 8.2431-0.2142 4.0166 1.6855 6.2504 6.7013 2.363 5.3057 0.92732 9.4542-1.4292 4.163-5.8941 6.1515-3.8995 1.7367-7.3615 0.51644-2.0565-0.71704-3.9176-2.9456l3.7955-2.9064q1.1129 1.4847 2.7422 1.9056 1.6148 0.42735 3.3254-0.33449 2.3629-1.0524 3.0862-3.407 0.70876-2.3482-0.98277-6.1462-1.7948-4.03-4.0063-5.095t-4.5309-0.032q-1.7106 0.76184-2.4586 2.3978-0.74797 1.636-0.24489 4.2088z"/>
   <path id="path4448" d="m379.79 527.32-4.4627 1.4658-3.0901-9.4079q-1.4431 0.64101-1.7677 1.4325-0.32465 0.79146-0.49922 3.9723-0.20848 4.0438-1.3234 5.3788-1.0998 1.33-4.1906 2.3452-0.15077 0.0495-0.64334 0.22802l-1.0845-3.3018 0.63818-0.19291q1.372-0.45063 1.8913-1.0054 0.52428-0.53967 0.68848-1.362 0.1642-0.82228 0.22498-3.2308 0.0307-1.2795 0.26062-2.2069 0.21482-0.92242 1.1981-1.997-1.6312 0.0681-3.0171-0.89649-1.4009-0.95964-3.3294-2.9152l-5.0061-5.0704 5.2467-1.7233 4.5152 4.8475q0.0999 0.10081 0.40981 0.3832 0.115 0.0959 0.89953 0.85706 1.3942 1.346 2.0857 1.5699 0.67647 0.2288 1.8122-0.12753l-3.1792-9.6792 4.4627-1.4658 7.2597 22.102z"/>
   <path id="path4450" d="m358.75 533.94-4.2935 0.94277-3.3218-15.128-5.8851 17.15-4.5725 1.004-4.9896-22.723 4.2935-0.94277 3.2572 14.833 5.9342-16.852 4.588-1.0074 4.9896 22.723z"/>
   <path id="path4452" d="m333.53 539.07-4.3704 0.47132-1.6607-15.399-7.7113 16.41-4.6544 0.50194-2.4944-23.13 4.3704-0.47131 1.6283 15.099 7.7278-16.108 4.6702-0.50364 2.4944 23.13zm-11.37 7.052-2.1615 0.2331q-0.0421-2.1662 1.1505-3.5398 1.1785-1.3561 3.277-1.5824 2.0984-0.2263 3.5548 0.84565 1.4423 1.0894 1.863 3.2148l-2.1615 0.2331q-0.23125-1.1083-0.97264-1.6189-0.73969-0.49483-2.0335-0.35531-1.2938 0.13953-1.911 0.78069-0.61548 0.65693-0.60512 1.7891z"/>
   <path id="path4454" d="m293.91 518.14-0.62567 19.318 6.8995 0.22345-0.12739 3.9335-18.478-0.59845 0.12739-3.9335 6.8836 0.22294 0.62567-19.318 4.6948 0.15205z"/>
   <path id="path4456" d="m279.51 517.5-2.9688 23.074-17.109-2.2013 0.50223-3.9034 12.45 1.6019 0.65816-5.1153-11.584-1.4905 0.5002-3.8876 11.584 1.4905 0.80802-6.28-12.891-1.6586 0.5002-3.8876 17.549 2.258z"/>
   <path id="path4458" d="m260.46 515.06-10.5 10.017 4.4899 12.47-5.3472-1.247-2.8461-8.3386-6.1484 6.2411-5.3009-1.2362 9.6133-9.3601-5.0252-13.458 5.5172 1.2867 3.1954 9.0067 6.8654-6.6605 5.4863 1.2794z"/>
   <path id="path4460" d="m237.19 509.43-7.6486 21.971-4.4361-1.5443 3.0104-8.6475-8.6924-3.0261-3.0104 8.6475-4.4361-1.5443 7.6486-21.971 4.4361 1.5443-3.3443 9.6066 8.6924 3.0261 3.3443-9.6066 4.4361 1.5443z"/>
   <path id="path4462" d="m205.18 522.5-3.9679-1.8917 6.6653-13.981-15.174 9.9241-4.2257-2.0146 10.012-21 3.9679 1.8917-6.5356 13.709 15.03-9.6588 4.24 2.0215-10.012 21z"/>
   <path id="path4464" d="m182.52 511.3-3.9969-2.4675 2.9177-4.7261q1.4172-2.2955 1.722-3.1518 0.28295-0.85104-0.21246-1.9215t-2.1158-2.0708q-1.2828-0.79194-2.4488-1.1388-1.1743-0.33332-2.2369-0.24335l-5.2685 8.534-3.997-2.4675 12.221-19.796 3.9969 2.4675-4.9184 7.9669q1.5487 0.21014 2.8986 0.65183 1.3415 0.45519 2.4758 1.1554 2.9572 1.8256 4.097 4.4502 1.118 2.6298-1.0078 6.0731l-4.1265 6.6841z"/>
   <path id="path4466" d="m175.24 479.15-14.213 18.418-13.656-10.538 2.4044-3.1157 9.9376 7.6688 3.1509-4.0831-9.2466-7.1355 2.3947-3.1031 9.2466 7.1355 3.8683-5.0128-10.289-7.9402 2.3947-3.1031 14.008 10.81z"/>
   <path id="path4468" d="m141.62 461.72-2.2942-4.1911q3.3889-2.0292 6.4384-1.6825 3.0271 0.34721 5.7341 2.9352 3.3494 3.2021 3.3236 7.5464-0.0367 4.3557-3.831 8.3246-4.0136 4.1982-8.3967 4.4427-4.3941 0.25594-7.927-3.1216-3.0856-2.9499-3.269-6.616-0.11625-2.1748 1.2402-4.742l4.1285 2.4101q-0.9519 1.5928-0.7236 3.26 0.21683 1.6563 1.5704 2.9503 1.8697 1.7875 4.3227 1.564 2.4416-0.23449 5.3147-3.2398 3.0486-3.1888 3.1955-5.639 0.14694-2.4501-1.6884-4.2047-1.3535-1.294-3.151-1.3658t-3.9874 1.3692z"/>
   <path id="path4470" d="m123.9 464.51-3.0485-3.5736 7.5336-6.4266q-1.1403-1.0922-1.9958-1.0925-0.85546-0.00029-3.865 1.0443-3.8209 1.3405-5.479 0.81503-1.6478-0.51336-3.7591-2.9883-0.103-0.12073-0.45494-0.50884l2.644-2.2555 0.42049 0.51737q0.93722 1.0986 1.6475 1.3688 0.69817 0.28048 1.5213 0.12062t3.0748-1.0169q1.1956-0.45676 2.1409-0.59568 0.935-0.15099 2.3022 0.35139-0.68156-1.4836-0.3145-3.1317 0.35676-1.6602 1.435-4.1862l2.7935-6.5548 3.5841 4.2014-2.7733 6.0161q-0.0554 0.13069-0.19918 0.52452-0.0451 0.14275-0.45197 1.1573-0.71683 1.8005-0.66174 2.5252 0.0448 0.71271 0.80516 1.6285l7.7509-6.612 3.0485 3.5736-17.699 15.099z"/>
   <path id="path4472" d="m109.79 447.54-2.4981-3.6169 12.744-8.8019-18.101 1.0457-2.6604-3.852 19.142-13.221 2.4981 3.617-12.496 8.6305 17.844-0.88738 2.6694 3.865-19.142 13.221z"/>
   <path id="path4474" d="m95.465 426.1-2.0824-3.8712 13.64-7.3372-18.106-0.96419-2.2177-4.1228 20.488-11.021 2.0824 3.8712-13.375 7.1944 17.833 1.093 2.2252 4.1368-20.488 11.021zm-10.814-7.8774-1.0299-1.9146q1.9909-0.8547 3.7125-0.26714 1.7001 0.58111 2.6999 2.4398 0.99985 1.8587 0.55522 3.6116-0.46612 1.7463-2.2766 2.9364l-1.0299-1.9146q0.93964-0.63159 1.1335-1.5107 0.17986-0.87158-0.43659-2.0176t-1.4428-1.4763q-0.84035-0.32279-1.8852 0.11314z"/>
   <path id="path4476" d="m80.699 396.53-1.7838-4.9405 9.5156-9.2059-12.932-0.25724-1.6653-4.6122 19.295 1.3848q3.1381 0.23357 5.0088 0.97539 1.8557 0.7472 2.5725 2.7324 0.70599 1.9553 0.85104 3.1514l-3.2837 1.1856q-0.27981-0.9619-0.55466-1.7231-0.55508-1.5374-1.3445-1.9947-0.8097-0.46688-2.8815-0.41059l-12.797 13.715z"/>
   <path id="path4478" d="m95.094 367.43-22.59 5.5603-1.1227-4.5611 8.8911-2.1885-2.1998-8.9374-8.8911 2.1885-1.1227-4.5611 22.59-5.5603 1.1227 4.5611-9.8773 2.4312 2.1998 8.9374 9.8773-2.4312 1.1227 4.5611z"/>
   <path id="path4480" d="m66.697 347.66-0.56518-4.3593 15.36-1.9914-16.572-7.3566-0.60191-4.6425 23.071-2.9912 0.56518 4.3593-15.061 1.9526 16.271 7.3797 0.60395 4.6583-23.071 2.9912z"/>
   <path id="path4482" d="m63.785 322.08-0.16518-9.2978q-0.04905-2.7608 0.165-4.1137 0.19789-1.3685 0.90887-2.4445 0.7107-1.0919 1.9197-1.8276 1.1932-0.73542 2.7005-0.7622 1.6343-0.029 3.0146 0.83526 1.38 0.84842 2.0891 2.3436 0.58103-2.1371 2.0522-3.306t3.4862-1.2047q1.5867-0.0282 3.1072 0.69077 1.5044 0.70337 2.4317 1.9725 0.91108 1.2536 1.1506 3.1221 0.14779 1.1719 0.2593 5.6616l0.14065 7.9175-23.26 0.41322zm3.788-4.7653 5.3788-0.0956-0.05468-3.0781q-0.04876-2.7449-0.13994-3.4099-0.16422-1.2033-0.85861-1.8735-0.71053-0.68573-1.8371-0.66572-1.0789 0.0192-1.7346 0.63394-0.67184 0.59918-0.79378 1.7758-0.06693 0.69954-0.008 4.0157l0.04792 2.6973zm9.2502-0.16433 6.2197-0.1105-0.07723-4.3474q-0.0451-2.5387-0.20002-3.2184-0.209-1.0438-0.95043-1.6814-0.75757-0.65315-1.9952-0.63116-1.0472 0.0186-1.768 0.5393-0.72085 0.5207-1.0369 1.4945-0.31629 0.95792-0.25935 4.163l0.06737 3.7921z"/>
   <path id="path4484" d="m86.92 298.34-23.172-2.0678 1.5332-17.181 3.92 0.3498-1.1157 12.503 5.1371 0.45842 1.0381-11.633 3.9042 0.34839-1.0381 11.633 6.3067 0.56279 1.1552-12.945 3.9042 0.34839-1.5727 17.624z"/>
   <path id="path4486" d="m89.087 276.9-22.842-4.412 1.4295-7.401q0.81258-4.2069 1.4022-5.4184 0.89338-1.8639 2.8787-2.8542 1.9697-0.99334 4.6964-0.46667 2.1035 0.4063 3.3895 1.4466 1.286 1.0404 1.8831 2.384 0.5845 1.3251 0.61463 2.5916 0.0082 1.7148-0.59674 4.8466l-0.58085 3.0072 8.6164 1.6643-0.89084 4.612zm-18.087-8.2777 6.4818 1.252 0.48755-2.5242q0.52668-2.7267 0.34588-3.7152-0.1808-0.98851-0.84496-1.6502-0.66115-0.67723-1.6739-0.87285-1.2465-0.24077-2.1982 0.33505-0.95167 0.57582-1.3709 1.6585-0.31532 0.79571-0.79685 3.2887l-0.43037 2.2281z"/>
   <path id="path4488" d="m89.376 239.83 2.7156-3.9311q3.3343 2.1177 4.3932 4.9984 1.0483 2.8609-0.04941 6.4415-1.3582 4.4303-5.2519 6.357-3.9089 1.9221-9.1585 0.31272-5.553-1.7024-7.7387-5.5095-2.2008-3.8118-0.76822-8.4848 1.2512-4.0813 4.445-5.8907 1.8913-1.08 4.7942-1.02l-0.3008 4.771q-1.8506-0.13578-3.238 0.81652-1.3828 0.93713-1.9316 2.7274-0.75817 2.4731 0.54253 4.5648 1.3054 2.0766 5.2805 3.2952 4.2179 1.2931 6.4733 0.32473 2.2555-0.96835 2.9997-3.3959 0.54886-1.7903-0.19368-3.4288-0.74255-1.6385-3.0132-2.9487z"/>
   <path id="path4490" d="m78.971 225.01 1.7521-4.0314 14.205 6.1736-10.447-14.819 1.866-4.2934 21.336 9.2731-1.7522 4.0315-13.928-6.0534 10.177 14.684-1.8723 4.308-21.336-9.2731z"/>
   <path id="path4492" d="m112.4 208.63-16.84-9.4868-3.3881 6.0144-3.4289-1.9316 9.074-16.108 3.4289 1.9316-3.3804 6.0006 16.84 9.4868-2.3055 4.0926z"/>
   <path id="path4494" d="m119.63 196.16-19.05-13.354 9.9016-14.125 3.2226 2.259-7.2053 10.279 4.2232 2.9604 6.7043-9.5639 3.2096 2.2499-6.7043 9.5639 5.1848 3.6345 7.4603-10.642 3.2096 2.2499-10.157 14.489z"/>
   <path id="path4496" d="m135.64 174.69-14.669-12.586-4.4952 5.2389-2.9868-2.5628 12.039-14.031 2.9868 2.5628-4.4848 5.2269 14.669 12.586-3.0588 3.5649z"/>
   <path id="path4498" d="m156.99 141.35 4.3792-1.9109q1.7186 3.5565 1.101 6.5629-0.61605 2.984-3.4354 5.4492-3.4883 3.0502-7.8129 2.6367-4.3351-0.42543-7.9494-4.5588-3.8232-4.3723-3.6754-8.7597 0.13732-4.3994 3.8168-7.6167 3.2135-2.81 6.8814-2.6654 2.1765 0.0784 4.6123 1.6586l-2.769 3.8969q-1.5014-1.0903-3.1824-1.0117-1.669 0.0681-3.0787 1.3007-1.9472 1.7027-1.9436 4.1659 0.0156 2.4528 2.7524 5.5827 2.904 3.321 5.3312 3.6861 2.4272 0.36507 4.3386-1.3063 1.4097-1.2326 1.6416-3.0165 0.23199-1.7839-1.0078-4.0937z"/>
   <path id="path4500" d="m155.83 123.36 7.6189-5.332q2.2623-1.5832 3.5039-2.1616 1.2455-0.60049 2.5352-0.61205 1.3026-0.0207 2.5883 0.571 1.2766 0.57866 2.141 1.8138 0.9372 1.3392 0.99162 2.9668 0.0674 1.6186-0.77645 3.042 2.097-0.71221 3.8885-0.14519 1.7914 0.56701 2.947 2.2182 0.90989 1.3002 1.1632 2.9629 0.25723 1.6407-0.27725 3.1188-0.53058 1.456-1.9465 2.6987-0.88932 0.77734-4.5505 3.3783l-6.4877 4.5404-13.339-19.06zm6.0686 0.47907 3.0845 4.4075 2.5223-1.7652q2.2493-1.5741 2.7498-2.0213 0.90623-0.80853 1.074-1.7588 0.17171-0.97242-0.47432-1.8955-0.61873-0.8841-1.4949-1.0844-0.87231-0.2224-1.9163 0.33391-0.61756 0.33534-3.3349 2.237l-2.2102 1.5468zm5.3047 7.5799 3.5668 5.0966 3.5624-2.4931q2.0802-1.4558 2.5574-1.9641 0.74891-0.75655 0.86342-1.7277 0.11841-0.99322-0.59131-2.0073-0.60053-0.8581-1.4351-1.165-0.8346-0.3069-1.8188-0.0249-0.97117 0.2729-3.5975 2.1109l-3.1074 2.1746z"/>
   <path id="path4502" d="m199.92 123-4.6814-8.5092-0.83423 0.45896q-1.9466 1.0709-2.4317 2.0985-0.47125 1.02-0.80518 4.9891l-0.53531 6.0723-4.922 2.7078 0.30109-5.3457q0.17343-3.1745 0.52923-4.6018 0.34814-1.4413 1.2559-2.9188-3.0951 1.1232-5.2018 0.28985-2.1143-0.84725-3.2923-2.9884-1.025-1.8631-0.88133-3.8077 0.14994-1.9662 1.4116-3.2942 1.268-1.3496 4.3268-3.0325l8.6621-4.7655 11.214 20.383-4.1156 2.2642zm-9.3168-16.935-3.2118 1.767q-2.4471 1.3463-3.1645 1.8859-0.70352 0.53194-0.9078 1.4775-0.20429 0.94555 0.36176 1.9744 0.58899 1.0706 1.4692 1.4195 0.88647 0.32735 1.7909 0.029 0.91837-0.30602 3.4628-1.7058l3.045-1.6752-2.8455-5.1722z"/>
   <path id="path4504" d="m204.67 101.92-4.6232 0.80284q-0.856-5.807 5.5154-8.5046 3.7702-1.5963 6.3899-0.74092 2.6281 0.83458 3.5748 3.0704 0.64966 1.5344 0.29878 3.1478-0.35707 1.5988-1.7147 3.2765 2.4429-0.17267 4.0789 0.72008 1.6298 0.87814 2.4589 2.8363 1.1941 2.8204-0.14466 5.4379-1.3242 2.6114-5.4451 4.3562-3.3611 1.4231-5.7748 1.1354-2.42-0.30232-4.6984-2.9566l3.4095-2.9773q1.4305 1.6691 2.6801 1.8121 1.2642 0.13681 2.7548-0.49429 2.0458-0.86621 2.6099-2.139 0.55783-1.2874 0.0752-2.4272-0.55685-1.3152-1.9639-1.6672-1.3924-0.35825-3.526 0.54509l-0.97909 0.41454-1.3674-3.2295 0.49685-0.21037q1.9874-0.84146 2.6621-2.1784 0.67474-1.3369 0.0498-2.8128-0.49497-1.1691-1.6975-1.6077-1.1879-0.44487-2.7807 0.22954-2.7181 1.1508-2.3395 4.1614z"/>
   <path id="path4506" d="m220.13 88.795 4.202-1.2905 4.5471 14.806 4.4638-17.573 4.4751-1.3744 6.8299 22.239-4.202 1.2905-4.4586-14.518-4.5372 17.28-4.4903 1.379-6.83-22.239z"/>
   <path id="path4508" d="m254.47 79.598 4.3483-0.64434 2.2703 15.321 7.0542-16.703 4.6308-0.68621 3.4101 23.013-4.3483 0.64434-2.2261-15.023-7.0827 16.402-4.6465 0.68853-3.4101-23.013z"/>
   <path id="path4510" d="m289.76 75.657 4.3958 0.0065-0.023 15.488 9.4492-15.474 4.6814 0.0069-0.0345 23.264-4.3957-0.0065 0.0225-15.187-9.4329 15.173-4.6973-0.007 0.0345-23.264z"/>
   <path id="path4512" d="m312.88 99.196 2.5322-23.126 4.6694 0.51127-0.99664 9.1021 9.1494 1.0018 0.99664-9.1021 4.6694 0.51127-2.5322 23.126-4.6694-0.51128 1.1072-10.112-9.1494-1.0018-1.1072 10.112-4.6694-0.51127z"/>
   <path id="path4514" d="m350.12 102.36-0.61449 2.6431-4.4825-1.0421 0.61449-2.6431q-5.3787-1.4622-7.045-4.4564-1.6472-3.006-0.78121-6.7311 0.91274-3.9261 3.7965-5.7484 2.8874-1.8378 8.1585-0.8241l0.52106-2.2413 4.4825 1.0421-0.52106 2.2413q5.3478 1.4551 7.0176 4.4338 1.6853 2.9823 0.80854 6.7538-0.86963 3.7406-3.6858 5.6926-2.8126 1.9366-8.2692 0.87982zm0.88759-3.8179q1.793 0.41684 3.2161 0.11228 1.4385-0.30097 2.2167-1.1954 0.77816-0.89439 1.2345-2.8574 1.1427-4.9153-4.3136-6.1838l-2.3537 10.124zm-4.4825-1.0421 2.3537-10.124q-2.8904-0.67198-4.4752 0.32814-1.5812 0.98467-2.1885 3.5969-1.1463 4.9308 4.31 6.1993z"/>
   <path id="path4516" d="m365.93 97.366q1.2281-3.3358 3.0592-5.2321 1.3586-1.3938 3.1273-2.2477 1.7835-0.84842 3.5532-0.9241 2.3582-0.11265 5.0239 0.8687 4.825 1.7763 6.6121 5.8332 1.802 4.0624-0.1607 9.3937-1.9462 5.2867-5.9224 7.2219-3.9706 1.9203-8.7808 0.14949-4.8697-1.7927-6.6529-5.8144-1.7777-4.0365 0.14115-9.2487zm4.5969 1.5232q-1.3651 3.7081-0.35976 6.2597 1.0108 2.5366 3.6467 3.507 2.6359 0.97039 5.015-0.30139 2.3994-1.2812 3.7974-5.0787 1.3816-3.7528 0.40836-6.208-0.95831-2.4497-3.6836-3.453-2.7252-1.0033-5.0839 0.25909-2.3532 1.2475-3.7402 5.0152z"/>
   <path id="path4518" d="m386.29 117.49 10.367-20.827 6.7481 3.3589q3.8358 1.9093 4.8451 2.8017 1.5567 1.3598 1.9793 3.5378 0.4297 2.1638-0.80779 4.6499-0.95464 1.9179-2.3013 2.8784t-2.8012 1.176q-1.4332 0.20838-2.6615-0.10168-1.6544-0.45123-4.5099-1.8726l-2.7418-1.3648-3.9105 7.8562-4.2051-2.0931zm12.818-15.21-2.9417 5.9099 2.3014 1.1456q2.4861 1.2375 3.487 1.328 1.0008 0.0905 1.8161-0.3723 0.82952-0.45569 1.2892-1.3791 0.56571-1.1365 0.26572-2.2076-0.3-1.0711-1.2309-1.7649-0.68223-0.51685-2.9553-1.6483l-2.0315-1.0112z"/>
   <path id="path4520" d="m405.11 126.95 12.654-19.522 5.8991 3.8238-5.0894 15.612 12.134-11.046 5.9125 3.8324-12.654 19.522-3.662-2.3737 9.9608-15.367-13.836 12.855-3.7952-2.46 6.0991-17.87-9.9608 15.367-3.662-2.3737z"/>
   <path id="path4522" d="m443.73 155.34-3.9414-3.2521 1.7964-5.3688-7.1729-5.9184-4.8442 2.854-3.8435-3.1713 21.795-12.178 3.8313 3.1612-7.6208 23.873zm-0.81328-12.604 3.0216-8.6989-7.9178 4.6591 4.8962 4.0398z"/>
   <path id="path4524" d="m447.89 159.79 13.696-13.639-4.8709-4.8915 2.7887-2.777 13.045 13.1-2.7887 2.777-4.8597-4.8802-13.696 13.639-3.3145-3.3284z"/>
   <path id="path4526" d="m476.06 155.49 2.7709 3.4124-12.024 9.7632 17.966-2.4456 2.951 3.6342-18.06 14.665-2.7709-3.4124 11.79-9.5732-17.721 2.2678-2.961-3.6465 18.06-14.665z"/>
   <path id="path4528" d="m491.84 175.64 2.5744 3.929-8.2827 5.427q0.99375 1.2271 1.8424 1.3351 0.84862 0.108 3.9657-0.5494 3.9593-0.84875 5.538-0.11873 1.57 0.71673 3.3529 3.4378 0.087 0.13273 0.38725 0.56207l-2.9069 1.9047-0.35201-0.56619q-0.79144-1.2079-1.462-1.5654-0.6573-0.36616-1.494-0.3112-0.83671 0.0549-3.1784 0.62169-1.2436 0.3026-2.1989 0.32139-0.94657 0.0321-2.2397-0.63844 0.48936 1.5576-0.0823 3.1464-0.56294 1.602-1.9507 3.9722l-3.5966 6.151-3.0266-4.6192 3.5087-5.6191q0.0714-0.12267 0.26363-0.49526 0.0627-0.13595 0.59409-1.0912 0.93781-1.6959 0.9744-2.4218 0.0453-0.71268-0.59372-1.7169l-8.5217 5.5836-2.5744-3.929 19.459-12.75z"/>
   <path id="path4530" d="m503.72 194.26 2.0194 3.9044-13.757 7.1153 18.088 1.2574 2.1506 4.1582-20.664 10.688-2.0194-3.9044 13.489-6.9768-17.812-1.3818-2.1579-4.1723 20.664-10.688z"/>
  </g>
 </g>
 <g id="layer2" transform="translate(-10.722 -10.714)">
  <path id="path4142" d="m290.21 104.71c-107.84 0-195.26 86.61-195.26 193.45 0 106.83 87.42 193.44 195.26 193.44s195.26-86.61 195.26-193.44c0-106.84-87.42-193.44-195.26-193.45zm-0.64063 47.725c34.224 0.31566 54.23 24.23 55.072 25.254l0.42673 0.44822 0.60335 0.69352c12.204-1.3827 22.262-1.4436 30.277-1.3917 10.459 0.0677 16.631 0.8125 16.631 0.8125s-16.558 50.793-21.869 79.533c-5.3107 28.74-10.879 72.789-10.879 72.789s-14.595-13.638-40.598-7.7285c-13.716 3.1172-29.096 12.477-29.096 12.477s-26.39-15.531-47.031-13.143c-13.057 1.511-27.211 10.324-27.211 10.324s-5.4133-52.088-10.285-74.562c-4.7429-21.88-18.432-78.1-18.432-78.1s26.71-2.4983 52.951 2.6562 48.264 20.305 48.264 20.305 27.802-20.324 56.217-23.617l-0.42969-0.5332s-20.134-24.899-54.619-25.217c-35.884-0.33098-58.33 27.584-58.33 27.584l-1.1974-0.16549s23.139-28.754 59.535-28.418zm141.54 34.301s19.048 16.574 20.984 30.926c1.433 10.619-3.0547 22.277-3.0547 22.277s3.9154 4.1056 5.707 13.176c1.7877 9.05-0.33203 17.01-0.33203 17.01s2.3192-2.3198 3.6445-3.9766c1.3254-1.6567 3.9766-12.592 3.9766-12.592s6.8593 27.294-0.11133 44.18c-3.8278 9.2723-12.811 12.922-12.811 12.922l0.99218 12.922s-1.4359 0.3328 3.4238-0.55078c4.8597-0.88359 15.684-16.236 15.684-16.236s-1.7134 31.201-11.375 44.289c-5.5896 7.5718-12.812 5.6328-12.812 5.6328s-0.88333 6.4067-3.6445 20.434c-2.408 12.233-10.353 15.222-12.348 15.787l19.307-4.8535s-8.3947 17.119-18.225 27.17c-9.8299 10.051-26.617 8.8359-26.617 8.8359l-8.6152 5.8555h18.666s-20.281 20.596-40.977 21.646c-15.57 0.79063-19.361-3.7461-19.361-3.7461s0.28945-2.811 2.3867-7.9902c0.57239-1.4135 3.6096-5.0514 7.8066-8.8066s28.828-4.3066 28.828-4.3066-1.7679-3.0938-2.541-5.3027c-0.77313-2.209-1.5459-7.5108-0.44141-16.457 1.1045-8.9463 11.486-32.582 11.486-32.582s4.1959 13.696 5.7422 23.305 1.3262 13.254 1.3262 13.254 4.3072-4.9707 5.8535-7.1797 11.377-7.2891 11.377-7.2891-3.6459-2.43-6.5176-7.6211c-2.8716-5.191 0.55219-16.236 3.4238-23.525 2.8716-7.2896 17.893-27.502 17.893-27.502l4.3086 3.9766 0.67969-7.5566s-0.75878-0.12838-3.3301-0.94726c-6.8697-2.1878-8.9475-11.045-10.936-17.23-1.9881-6.1851-0.10937-36.559-0.10937-36.559l14.025 18.445s1.8776-10.603 2.209-12.48c0.33134-1.8776 4.75-8.2832 4.75-8.2832s-3.628-0.74112-5.1406-1.5332c-5.3734-2.8139-9.3284-11.831-12.311-19.342-3-7.52-3.99-35.02-3.99-35.02l4.0879 3.4238s-1.5474-11.376-2.0996-15.242c-0.55224-3.8657-0.88281-20.764-0.88281-20.764zm-281.9 1.25s-0.33057 16.898-0.88281 20.764c-0.55224 3.8657-2.0996 15.242-2.0996 15.242l4.0859-3.4238s-0.99252 27.501-3.9746 35.012c-2.9821 7.5105-6.9391 16.528-12.312 19.342-1.5126 0.79208-5.1387 1.5332-5.1387 1.5332s4.4167 6.4056 4.748 8.2832c0.33134 1.8776 2.209 12.48 2.209 12.48l14.027-18.445s1.8787 30.374-0.10937 36.559c-1.9881 6.1851-4.0659 15.043-10.936 17.23-2.5713 0.81888-3.3301 0.94726-3.3301 0.94726l0.67969 7.5566 4.3066-3.9766s15.021 20.212 17.893 27.502c2.8716 7.2896 6.2974 18.334 3.4258 23.525-2.8716 5.1911-6.5176 7.6211-6.5176 7.6211s9.8307 5.0801 11.377 7.2891 5.8535 7.1797 5.8535 7.1797-0.22205-3.6449 1.3242-13.254c1.5463-9.609 5.7441-23.305 5.7441-23.305s10.382 23.636 11.486 32.582c1.1045 8.9463 0.33172 14.248-0.44141 16.457-0.77314 2.209-2.541 5.3008-2.541 5.3008s24.631 0.55336 28.828 4.3086 7.2342 7.3931 7.8066 8.8066c2.0973 5.1792 2.3867 7.9883 2.3867 7.9883s-3.7914 4.5387-19.361 3.748c-20.695-1.0509-40.977-21.648-40.977-21.648h18.666l-8.6152-5.8535s-16.787 1.2148-26.617-8.8359c-9.8299-10.051-18.225-27.17-18.225-27.17l19.328 4.8594c-1.9687-0.5542-9.9548-3.5281-12.369-15.793-2.7612-14.027-3.6445-20.434-3.6445-20.434s-7.2229 1.939-12.812-5.6328c-9.6616-13.088-11.377-44.289-11.377-44.289s10.824 15.353 15.684 16.236c4.8597 0.88358 3.4238 0.55078 3.4238 0.55078l0.99414-12.922s-8.9828-3.6496-12.811-12.922c-6.9707-16.886-0.11133-44.18-0.11133-44.18s2.6512 10.935 3.9766 12.592c1.3254 1.6567 3.6445 3.9746 3.6445 3.9746s-2.1197-7.9578-0.33203-17.008c1.7917-9.0701 5.7051-13.176 5.7051-13.176s-4.4858-11.66-3.0527-22.279c1.9368-14.352 20.984-30.924 20.984-30.924zm91.527 173.23h1.0996v38.035c0 2.5247 0.099 4.0967 0.29883 4.7168 0.22202 0.6201 0.66598 1.0975 1.332 1.4297 0.66605 0.3322 2.02 0.52016 4.0625 0.56445v1.2285h-16.984v-1.2285c2.1314-0.0443 3.5092-0.2212 4.1309-0.53125 0.62164-0.33219 1.0546-0.76536 1.2988-1.2969 0.24421-0.55366 0.36523-2.181 0.36523-4.8828v-24.316c0-3.2777-0.11001-5.3824-0.33203-6.3125-0.15541-0.70868-0.44536-1.2284-0.86719-1.5606-0.39963-0.33219-0.8876-0.49804-1.4648-0.49804-0.82146 0-1.9644 0.34276-3.4297 1.0293l-0.5-1.0293zm31.904 0c3.7077 0 6.8814 1.5278 9.5234 4.584 3.2414 3.787 4.8633 8.4588 4.8633 14.018 0 5.0051-1.2329 9.6788-3.6973 14.02-2.4644 4.3186-5.8951 7.9068-10.291 10.764-3.5745 2.3475-7.4711 3.5195-11.689 3.5195h-1.8965v-1.2285c2.8862-0.0443 5.572-0.7077 8.0586-1.9922 2.4866-1.3066 4.8844-3.5772 7.1934-6.8105 2.3312-3.2334 3.9511-6.7884 4.8613-10.664-3.4856 2.2368-6.6374 3.3555-9.457 3.3555-3.1748 0-5.8956-1.2182-8.1602-3.6543-2.2646-2.4582-3.3965-5.7128-3.3965-9.7656 0-3.942 1.1319-7.4529 3.3965-10.531 2.7308-3.7427 6.2955-5.6133 10.691-5.6133zm32.969 0c3.6633 0 6.716 1.172 9.1582 3.5195 2.4644 2.3475 3.6973 5.1176 3.6973 8.3066 0 2.2811-0.53393 4.5607-1.5996 6.8418-1.6429 3.5877-4.3067 7.386-7.9922 11.395-5.5282 6.0238-8.9809 9.6563-10.357 10.896h11.789c2.3978 0 4.0746-0.0885 5.0293-0.26562 0.97687-0.17717 1.8538-0.53099 2.6309-1.0625 0.77706-0.55366 1.454-1.3296 2.0312-2.3262h1.2324l-3.1641 8.6699h-26.643v-1.2285c7.8372-7.1311 13.356-12.957 16.553-17.475 3.197-4.5179 4.7949-8.6479 4.7949-12.391 0-2.8569-0.87693-5.2029-2.6309-7.041-1.7539-1.8382-3.8527-2.7578-6.2949-2.7578-2.2202 0-4.218 0.65235-5.9941 1.959-1.7539 1.2845-3.0528 3.1791-3.8965 5.6816h-1.2324c0.55504-4.0971 1.9769-7.2431 4.2637-9.4356 2.309-2.1925 5.1838-3.2871 8.625-3.2871zm37.432 0h1.0996v38.035c0 2.5247 0.099 4.0967 0.29883 4.7168 0.22202 0.6201 0.66598 1.0975 1.332 1.4297 0.66605 0.3322 2.0219 0.52016 4.0644 0.56445v1.2285h-16.984v-1.2285c2.1314-0.0443 3.5073-0.2212 4.1289-0.53125 0.62164-0.33219 1.0546-0.76536 1.2988-1.2969 0.24422-0.55366 0.36719-2.181 0.36719-4.8828v-24.316c0-3.2777-0.11197-5.3824-0.33398-6.3125-0.15541-0.70868-0.44341-1.2284-0.86524-1.5606-0.39963-0.33219-0.88955-0.49804-1.4668-0.49804-0.82147 0-1.9644 0.34276-3.4297 1.0293l-0.5-1.0293zm-71.133 2.1582c-1.976 0-3.7078 0.8865-5.1953 2.6582s-2.2324 4.4071-2.2324 7.9062c0 4.6729 0.98889 8.3275 2.9648 10.963 1.4431 1.9046 3.219 2.8555 5.3281 2.8555 1.0213 0 2.2302-0.24325 3.6289-0.73047s2.6316-1.1727 3.6973-2.0586c0.39963-2.879 0.59961-5.1827 0.59961-6.9102 0-2.1482-0.36696-4.463-1.0996-6.9434-0.73266-2.5025-1.7746-4.4173-3.1289-5.7461-1.3321-1.3288-2.853-1.9941-4.5625-1.9941zm91.715 54.311s-14.67 30.342-30.703 37.994c-19.439 9.2776-30.043 4.748-30.043 4.748s-1.5073-16.027 10.824-26.287c14.469-12.039 49.922-16.455 49.922-16.455zm-146.93 1.248s35.453 4.4182 49.922 16.457c12.331 10.261 10.824 26.287 10.824 26.287s-10.604 4.5276-30.043-4.75c-16.033-7.6522-30.703-37.994-30.703-37.994zm135.99 29.98c2.2819-0.00001 4.132 1.6368 4.1328 3.6562 0.00043 2.0203-1.85 3.6582-4.1328 3.6582-2.2828 0.00001-4.1332-1.6379-4.1328-3.6582 0.00078-2.0195 1.8509-3.6563 4.1328-3.6562zm-125.04 1.248c2.2828-0.00001 4.1332 1.638 4.1328 3.6582 0.00043 2.0203-1.85 3.6582-4.1328 3.6582-2.2828 0.00001-4.1332-1.6379-4.1328-3.6582-0.00044-2.0203 1.85-3.6582 4.1328-3.6582z" transform="translate(10.722 10.714)"/>
 </g>
 <g id="layer5" transform="translate(-10.722 -10.714)">
  <g id="g4181" stroke="#000">
   <path id="path4154" style="color-rendering:auto;text-decoration-color:#000000;color:#000000;isolation:auto;mix-blend-mode:normal;shape-rendering:auto;solid-color:#000000;block-progression:tb;text-decoration-line:none;text-decoration-style:solid;image-rendering:auto;white-space:normal;text-indent:0;text-transform:none" d="m356.44 189.56-1.1247 0.32101c28.25 32.581 27.808 83.875-1.7791 115.07s-76.956 31.678-107.09 1.0918c-30.137-30.587-32.133-81.188-4.469-114.34l-1.1917-0.12785c-27.998 33.551-25.556 84.202 4.9517 115.16 30.507 30.962 78.577 30.473 108.53-1.1035 29.949-31.577 30.774-83.101 2.1812-116.08z"/>
   <g stroke="#000" fill="none">
    <ellipse id="path4156" rx="61.285" ry="54.97" cy="274.17" cx="299.93" stroke-width="1.0267"/>
    <g stroke-width="1px">
     <path id="path4158" d="m259.33 233.38s17.34 15.242 40.755 15.684c23.415 0.44179 40.314-15.905 40.314-15.905"/>
     <path id="path4160" d="m258.34 313.57s16.236-16.678 41.528-16.236c25.293 0.44179 40.976 17.119 40.976 17.119"/>
     <path id="path4162" d="m238.98 273.97 121.83 0.3124"/>
     <path id="path4164" d="m300.05 219.3 0.0138 109.36"/>
     <path id="path4166" d="m299.74 219.61s-35.769 21.087-36.082 54.357c-0.3124 33.27 35.921 54.752 35.921 54.752"/>
     <path id="path4168" d="m299.9 219.61s37.259 16.718 36.55 54.513c-0.62737 33.426-36.33 54.564-36.33 54.564"/>
    </g>
   </g>
  </g>
 </g>
 <g id="layer7" transform="translate(-10.722 -10.714)"></g>
</svg>
