<svg width="256" height="252" xmlns="http://www.w3.org/2000/svg" preserveAspectRatio="xMidYMid">

 <g>
  <title>background</title>
  <rect fill="none" id="canvas_background" height="402" width="582" y="-1" x="-1"/>
 </g>
 <g>
  <title>Layer 1</title>
  <path id="svg_1" fill="#ffffff" d="m235.64827,194.211639c-13.918411,-0.347076 -24.705399,1.045639 -33.75267,4.87233c-2.609695,1.043442 -6.785675,1.044525 -7.133835,4.349487c1.392731,1.392731 1.566269,3.654266 2.784332,5.567596c2.089096,3.4785 5.74115,8.177292 9.047226,10.613449c3.653137,2.783249 7.307373,5.566483 11.134094,8.002655c6.785675,4.175964 14.441208,6.611008 21.052261,10.786972c3.828903,2.433945 7.654449,5.567581 11.482254,8.177277c1.914474,1.390518 3.131454,3.653137 5.567612,4.523041l0,-0.521713c-1.218109,-1.566254 -1.566269,-3.827774 -2.783234,-5.567596c-1.738724,-1.739792 -3.479614,-3.306061 -5.219406,-5.045853c-5.045883,-6.784592 -11.308777,-12.700302 -18.09436,-17.571533c-5.566483,-3.827805 -17.746185,-9.047195 -20.007782,-15.484695c0,0 -0.174622,-0.173538 -0.34816,-0.347092c3.827774,-0.348175 8.350815,-1.739777 12.005096,-2.784348c5.915771,-1.566238 11.308762,-1.218063 17.39798,-2.783234c2.783234,-0.69635 5.567612,-1.566254 8.350861,-2.436157l0,-1.565155c-3.130325,-3.132538 -5.392944,-7.307388 -8.69902,-10.265289c-8.872559,-7.656662 -18.616135,-15.136505 -28.706757,-21.399384c-5.394073,-3.479599 -12.353287,-5.742249 -18.094345,-8.699036c-2.086884,-1.045639 -5.567627,-1.566238 -6.784592,-3.306061c-3.132523,-3.827774 -4.87233,-8.872543 -7.13385,-13.396729c-5.04364,-9.569962 -9.917114,-20.181267 -14.266571,-30.271904c-3.13031,-6.785675 -5.044754,-13.571381 -8.872543,-19.834145c-17.919693,-29.576618 -37.405769,-47.496414 -67.330551,-65.069067c-6.437485,-3.653152 -14.091934,-5.219402 -22.269249,-7.132744c-4.348396,-0.174644 -8.699013,-0.521717 -13.048553,-0.69636c-2.783241,-1.218096 -5.567589,-4.523045 -8.003761,-6.08931c-9.914871,-6.263947 -35.491323,-19.833115 -42.798691,-1.913342c-4.697691,11.30875 6.959212,22.442776 10.960492,28.184978c2.958989,4.001339 6.785672,8.524372 8.873658,13.048565c1.218088,2.955677 1.565157,6.089302 2.783245,9.22073c2.784342,7.653366 5.392942,16.179901 9.04719,23.313828c1.914444,3.653152 4.001324,7.480942 6.437489,10.785866c1.391617,1.913338 3.826679,2.784348 4.349499,5.915764c-2.435051,3.479599 -2.609699,8.69902 -4.00243,13.048561c-6.262844,19.659492 -3.826683,44.016808 5.045872,58.456902c2.783241,4.348404 9.395336,13.919525 18.267963,10.265289c7.829109,-3.131439 6.089302,-13.048553 8.35083,-21.747574c0.522827,-2.089081 0.174637,-3.479599 1.218079,-4.871231c0.000908,0.173538 0,0.348175 0,0.348175c2.436165,4.871231 4.871231,9.568954 7.132751,14.440094c5.394043,8.524384 14.788353,17.398026 22.617409,23.313858c4.177078,3.130295 7.482033,8.524368 12.701424,10.438812l0,-0.522842l-0.348183,0c-1.04454,-1.566238 -2.609695,-2.26152 -4.00132,-3.479584c-3.131432,-3.131424 -6.612137,-6.959229 -9.047195,-10.438812c-7.306282,-9.743591 -13.744888,-20.529449 -19.485977,-31.664581c-2.783241,-5.392944 -5.219398,-11.308762 -7.480927,-16.701691c-1.044548,-2.089081 -1.044548,-5.219406 -2.784348,-6.262833c-2.609703,3.826675 -6.436386,7.132736 -8.35083,11.830444c-3.303856,7.480927 -3.653141,16.701675 -4.871227,26.270523c-0.695267,0.174652 -0.348186,0 -0.696369,0.34819c-5.566486,-1.392731 -7.48093,-7.132736 -9.568954,-12.005081c-5.219406,-12.352127 -6.089302,-32.186371 -1.565155,-46.451813c1.218082,-3.654251 6.437489,-15.136528 4.349503,-18.616135c-1.043442,-3.306076 -4.524151,-5.219406 -6.437489,-7.829109c-2.261528,-3.306068 -4.697689,-7.480934 -6.262844,-11.135139c-4.175972,-9.742477 -6.263947,-20.529446 -10.786974,-30.273041c-2.087986,-4.524151 -5.741129,-9.220734 -8.699017,-13.395611c-3.304955,-4.697676 -6.959212,-8.003748 -9.568949,-13.571354c-0.8688,-1.913342 -2.087986,-5.04476 -0.696362,-7.132754c0.348183,-1.391612 1.043438,-1.913337 2.43616,-2.261521c2.261526,-1.914446 8.699016,0.521715 10.960492,1.565161c6.43749,2.608589 11.830444,5.045872 17.224491,8.699015c2.435059,1.739801 5.044758,5.045872 8.176186,5.915773l3.654243,0c5.567589,1.216982 11.830444,0.348166 17.049843,1.913342c9.22184,2.956783 17.571541,7.30739 25.053642,12.005087c22.792061,14.440098 41.580589,34.970665 54.282097,59.501495c2.087982,4.000221 2.956787,7.655563 4.871231,11.830444c3.654251,8.525475 8.177277,17.224487 11.830429,25.575333c3.653152,8.176178 7.132751,16.528137 12.352142,23.313828c2.610794,3.652039 13.048538,5.566483 17.746155,7.480927c3.479614,1.565155 8.873688,2.957886 12.005096,4.871231c5.914688,3.652039 11.83046,7.829117 17.398026,11.830429c2.784332,2.086899 11.482254,6.4375 12.005081,9.916016l0.000046,-0.000015l0,0z"/>
  <path id="svg_2" fill="#ffffff" d="m58.186489,43.022263c-2.957882,0 -5.044758,0.349289 -7.132744,0.871017c0,-0.000904 0,0.174641 0,0.348183l0.348186,0c1.392727,2.783241 3.826683,4.697685 5.566483,7.132736c1.392731,2.783241 2.609699,5.567596 4.00243,8.351944c0.173531,-0.174648 0.347073,-0.348183 0.347073,-0.348183c2.437275,-1.74091 3.654251,-4.524151 3.654251,-8.699017c-1.044552,-1.218086 -1.21809,-2.436165 -2.08799,-3.654251c-1.043442,-1.74091 -3.306072,-2.609699 -4.697689,-4.00243l0,0l0,0z"/>
 </g>
</svg>