<svg width="256" height="255" xmlns="http://www.w3.org/2000/svg" preserveAspectRatio="xMidYMid">

 <g>
  <title>background</title>
  <rect fill="none" id="canvas_background" height="402" width="582" y="-1" x="-1"/>
 </g>
 <g>
  <title>Layer 1</title>
  <g id="svg_1">
   <path id="svg_2" fill="#ffffff" d="m126.915863,0.072276c-64.832279,0.000004 -60.783737,28.11519 -60.783737,28.11519l0.072281,29.127045l61.867874,0l0,8.745342l-86.441563,0c0,0 -41.486167,-4.70491 -41.486167,60.711464c-0.000005,65.416351 36.210052,63.096558 36.210052,63.096558l21.61039,0l0,-30.355728c0,0 -1.164856,-36.21006 35.631847,-36.21006l61.361946,0c0,0 34.475433,0.557297 34.475433,-33.319023l0,-56.013554c0,-0.000004 5.234329,-33.897233 -62.518356,-33.897233l0,0l0,0zm-34.114059,19.586673c6.155403,-0.000004 11.13044,4.975035 11.13044,11.130436c0,6.155401 -4.975037,11.130434 -11.13044,11.130434c-6.155396,0.000004 -11.130432,-4.975033 -11.130432,-11.130434c-0.000008,-6.155401 4.975037,-11.130436 11.130432,-11.130436l0,0l0,0z"/>
   <path id="svg_3" fill="#ffffff" d="m128.757095,254.126266c64.832306,0 60.783737,-28.115189 60.783737,-28.115189l-0.072266,-29.127045l-61.867874,0l0,-8.745346l86.441559,0c0,0 41.48616,4.704895 41.48616,-60.711479c0.000031,-65.416351 -36.210052,-63.09655 -36.210052,-63.09655l-21.610382,0l0,30.355728c0,0 1.164871,36.210052 -35.631851,36.210052l-61.361946,0c0,0 -34.475433,-0.557297 -34.475433,33.319046l0,56.01355c0,0 -5.234325,33.897232 62.518349,33.897232l0,0l0,0zm34.114059,-19.58667c-6.155396,0 -11.130432,-4.975037 -11.130432,-11.130432c0,-6.155411 4.975037,-11.130432 11.130432,-11.130432c6.155411,0 11.130447,4.975021 11.130447,11.130432c0.000015,6.155396 -4.975037,11.130432 -11.130447,11.130432l0,0l0,0z"/>
  </g>
 </g>
</svg>